<?xml version="1.0" standalone="no"?><!DOCTYPE svg PUBLIC "-//W3C//DTD SVG 1.1//EN" "http://www.w3.org/Graphics/SVG/1.1/DTD/svg11.dtd" ><svg xmlns="http://www.w3.org/2000/svg"><metadata></metadata><defs><font id="fonteditor" horiz-adv-x="1036"><font-face font-family="LXGW \|sQpN­Pro" font-weight="400" font-stretch="normal" units-per-em="1000" panose-1="0 2 6 0 4 1 1 1 1 1" ascent="916" descent="-301" x-height="1" bbox="-39 -279 1011 877" underline-thickness="0" underline-position="0" unicode-range="U+0021-ffe5" /><missing-glyph horiz-adv-x="515"  /><glyph glyph-name="exclam" unicode="!" d="M79 718 L176 718 L169 187 L86 187 L79 718 ZM180 91 L180 0 L75 0 L75 91 L180 91 Z" /><glyph glyph-name="quotedbl" unicode="&quot;" d="M21 459 L50 718 L136 718 L67 459 L21 459 ZM235 718 L320 718 L251 459 L205 459 L235 718 Z" /><glyph glyph-name="numbersign" unicode="#" d="M31 188 L31 273 L135 273 L173 435 L62 435 L62 519 L193 519 L240 718 L329 718 L283 519 L449 519 L495 718 L584 718 L538 519 L630 519 L630 435 L519 435 L481 273 L599 273 L599 188 L462 188 L419 0 L329 0 L372 188 L205 188 L161 0 L72 0 L116 188 L31 188 ZM225 273 L392 273 L429 435 L263 435 L225 273 Z" /><glyph glyph-name="dollar" unicode="$" d="M83 171 Q122 132 162.5 110.5 Q203 89 259 84 L261 84 L261 317 L259 317 Q217 325 179 341 Q141 357 112 382 Q83 407 66 442.5 Q49 478 49 524 Q49 568 67 600.5 Q85 633 115 655 Q145 677 182.5 688.5 Q220 700 259 702 L259 758 L344 758 L344 700 Q395 694 443.5 674.5 Q492 655 532 621 L487 553 Q420 608 344 612 L341 612 L341 396 Q343 396 344 395 Q385 385 423.5 370 Q462 355 491 331 Q520 307 537.5 272.5 Q555 238 555 190 Q555 145 537.5 110 Q520 75 491 51.5 Q462 28 424 15 Q386 2 344 0 L344 -78 L259 -78 L259 2 Q194 8 137.5 35 Q81 62 37 110 L83 171 ZM341 82 Q365 82 388 88 Q411 94 428.5 106.5 Q446 119 456.5 138.5 Q467 158 467 185 Q468 230 439 259 Q414 284 344 304 Q343 304 342.5 304.5 Q342 305 341 305 L341 82 ZM143 522 Q143 498 153.5 479 Q164 460 180.5 446 Q197 432 217.5 423 Q238 414 259 410 L261 410 L261 614 Q241 614 220 608 Q199 602 182 590.5 Q165 579 154 562 Q143 545 143 522 Z" /><glyph glyph-name="percent" unicode="%" d="M181 402 Q111 402 65 448 Q18 496 18 564 Q18 633 65 679 Q111 727 181 727 Q251 727 298 679 Q344 633 344 564 Q344 496 298 449 Q251 402 181 402 ZM589 718 L693 718 L181 0 L78 0 L589 718 ZM181 473 Q218 473 243 500 Q269 526 269 563 Q269 601 244 628 Q218 654 181 654 Q144 654 119 628 Q94 602 94 564 Q94 526 119 500 Q144 473 181 473 ZM596 -11 Q526 -11 480 36 Q433 84 433 151 Q433 220 480 267 Q526 314 596 314 Q666 314 712 267 Q759 220 759 151 Q759 83 713 36 Q666 -11 596 -11 ZM596 61 Q633 61 658 87 Q684 113 684 151 Q684 189 659 215 Q634 241 596 241 Q559 241 534 215 Q509 189 509 151 Q509 113 534 87 Q559 61 596 61 Z" /><glyph glyph-name="ampersand" unicode="&amp;" d="M492 104 Q387 -10 249 -9 Q150 -9 88 46 Q25 101 25 193 Q26 265 70 316 Q114 365 194 397 Q116 480 118 562 Q118 632 175 681 Q231 730 316 730 Q394 730 445 683 Q495 638 495 569 Q495 497 452 449 Q409 402 323 372 L488 214 Q548 293 570 376 L643 347 Q613 240 545 162 L661 51 L605 -6 L492 104 ZM277 430 Q345 455 378 487 Q410 519 410 564 Q410 601 383 624 Q356 647 313 647 Q268 647 239 622 Q210 597 210 560 Q210 527 226 496 Q241 465 277 430 ZM255 76 Q349 76 431 156 L252 329 Q184 302 152 271 Q119 239 119 196 Q119 143 158 110 Q196 76 255 76 Z" /><glyph glyph-name="quotesingle" unicode="&#39;" d="M54 718 L143 718 L70 446 L24 446 L54 718 Z" /><glyph glyph-name="parenleft" unicode="(" d="M283 801 Q212 676 180 575 Q146 474 146 350 Q147 224 181 120 Q217 17 283 -100 L198 -100 Q61 126 61 350 Q61 473 96 582 Q130 691 198 801 L283 801 Z" /><glyph glyph-name="parenright" unicode=")" d="M87 801 Q155 691 190 582 Q224 473 224 350 Q224 126 87 -100 L2 -100 Q74 30 107 129 Q140 228 139 350 Q138 474 106 574 Q74 674 2 801 L87 801 Z" /><glyph glyph-name="asterisk" unicode="*" d="M146 530 L42 456 L12 507 L129 560 L12 614 L42 665 L146 591 L134 718 L193 718 L181 591 L285 665 L315 614 L198 560 L315 507 L285 456 L181 530 L193 403 L134 403 L146 530 Z" /><glyph glyph-name="plus" unicode="+" d="M5 383 L218 383 L218 587 L313 587 L313 383 L526 383 L526 292 L313 292 L313 88 L218 88 L218 292 L5 292 L5 383 Z" /><glyph glyph-name="comma" unicode="," d="M54 -94 Q119 -66 112 0 L65 0 L65 98 L170 98 L170 13 Q170 -43 146 -76 Q121 -108 67 -123 L54 -94 Z" /><glyph glyph-name="hyphen" unicode="-" d="M-1 384 L452 384 L452 293 L-1 293 L-1 384 Z" /><glyph glyph-name="period" unicode="." d="M159 98 L159 0 L54 0 L54 98 L159 98 Z" /><glyph glyph-name="slash" unicode="/" d="M323 809 L423 809 L72 -108 L-28 -108 L323 809 Z" /><glyph glyph-name="zero" unicode="0" d="M345 -10 Q205 -8 138 95 Q70 197 71 365 Q71 532 144 630 Q216 728 348 728 Q477 728 546 630 Q616 533 616 365 Q616 197 548 93 Q481 -8 345 -10 ZM346 88 Q433 88 475 161 Q517 235 517 365 Q517 492 474 561 Q429 630 346 630 Q261 630 215 561 Q169 492 169 365 Q169 235 213 161 Q256 88 346 88 Z" /><glyph glyph-name="one" unicode="1" d="M179 718 L256 718 L256 0 L161 0 L161 607 L20 532 L20 634 L179 718 Z" /><glyph glyph-name="two" unicode="2" d="M180 90 L509 90 L509 0 L31 0 L31 67 L265 331 Q323 396 353 443 Q383 490 383 537 Q383 579 350 605 Q317 631 271 631 Q227 631 194 609 Q153 585 132 536 L27 552 Q53 639 121 684 Q186 728 267 728 Q368 728 428 675 Q488 622 488 544 Q488 488 460 437 Q431 387 350 291 L180 90 Z" /><glyph glyph-name="three" unicode="3" d="M380 384 Q439 366 479 321 Q519 276 519 206 Q519 112 454 51 Q389 -10 275 -10 Q191 -10 125 31 Q59 71 25 137 L103 195 Q132 143 179 113 Q225 83 279 83 Q346 83 387 119 Q428 155 428 211 Q429 266 383 301 Q341 331 254 332 L216 332 L216 421 L251 421 Q324 421 359 451 Q394 482 394 535 Q394 579 361 605 Q327 633 278 633 Q235 633 202 610 Q168 588 153 547 L49 567 Q74 647 133 688 Q193 728 281 728 Q381 728 436 674 Q491 621 491 544 Q491 487 461 444 Q430 402 380 384 Z" /><glyph glyph-name="four" unicode="4" d="M364 718 L481 718 L481 231 L569 231 L569 140 L481 140 L481 0 L387 0 L387 140 L57 140 L39 231 L364 718 ZM387 231 L387 587 L147 231 L387 231 Z" /><glyph glyph-name="five" unicode="5" d="M45 118 L116 173 Q146 128 184 105 Q222 82 273 82 Q349 82 391 122 Q432 162 432 228 Q432 288 392 325 Q350 362 280 362 Q233 362 204 349 Q173 335 150 312 L73 355 L125 718 L488 718 L488 627 L211 627 L183 419 Q218 441 264 449 Q284 455 305 455 Q408 455 468 390 Q528 326 528 231 Q528 124 461 57 Q393 -10 278 -10 Q207 -10 143 22 Q78 54 45 118 Z" /><glyph glyph-name="six" unicode="6" d="M76 338 Q77 457 120 543 Q163 628 245 677 Q356 737 489 727 L489 640 Q370 645 295 597 Q242 563 211 505 Q179 448 173 383 Q214 421 266 439 Q311 456 359 456 Q452 456 509 395 Q565 335 565 246 Q565 135 505 63 Q445 -10 328 -10 Q197 -6 140 82 Q105 132 90 199 Q76 265 76 338 ZM177 286 Q181 193 218 139 Q254 85 325 85 Q393 85 433 127 Q471 170 471 244 Q471 299 435 332 Q399 366 340 366 Q246 362 177 286 Z" /><glyph glyph-name="seven" unicode="7" d="M13 718 L465 718 L465 627 L211 0 L110 0 L364 627 L13 627 L13 718 Z" /><glyph glyph-name="eight" unicode="8" d="M436 387 Q489 365 522 321 Q554 277 554 213 Q554 115 489 52 Q423 -10 313 -10 Q198 -10 135 51 Q72 111 72 206 Q72 268 105 313 Q137 360 190 385 Q146 406 121 445 Q95 484 95 535 Q95 617 154 673 Q213 728 310 728 Q414 728 473 673 Q531 618 531 535 Q531 487 504 448 Q477 410 436 387 ZM310 642 Q255 642 223 613 Q190 583 190 535 Q190 485 222 455 Q253 425 310 425 Q372 425 404 453 Q436 482 436 529 Q436 582 403 612 Q369 642 310 642 ZM313 79 Q376 79 416 115 Q455 151 455 209 Q455 264 416 298 Q377 332 310 332 Q246 332 208 297 Q170 262 170 206 Q170 150 209 114 Q249 79 313 79 Z" /><glyph glyph-name="nine" unicode="9" d="M40 500 Q41 597 106 662 Q170 728 280 728 Q386 727 445 669 Q497 620 517 536 Q532 475 532 398 Q532 287 505 206 Q477 125 424 73 Q376 25 303 6 Q231 -12 126 -10 L126 75 Q207 74 267 92 Q324 109 358 144 Q427 209 427 338 Q391 303 350 287 Q308 271 252 271 Q162 271 101 334 Q39 397 40 500 ZM137 500 Q136 435 171 398 Q206 361 266 361 Q314 361 355 377 Q396 394 427 431 Q432 494 402 561 Q385 594 355 616 Q325 637 279 638 Q218 638 178 598 Q137 559 137 500 Z" /><glyph glyph-name="colon" unicode=":" d="M54 528 L159 528 L159 429 L54 429 L54 528 ZM54 98 L159 98 L159 0 L54 0 L54 98 Z" /><glyph glyph-name="semicolon" unicode=";" d="M38 -94 Q103 -65 97 0 L49 0 L49 98 L154 98 L154 13 Q154 -44 130 -75.5 Q106 -107 52 -123 L38 -94 ZM49 528 L154 528 L154 429 L49 429 L49 528 Z" /><glyph glyph-name="less" unicode="&lt;" d="M471 622 L471 514 L117 338 L471 162 L471 54 L2 297 L2 379 L471 622 Z" /><glyph glyph-name="equal" unicode="=" d="M39 507 L484 507 L484 416 L39 416 L39 507 ZM38 260 L483 260 L483 169 L38 169 L38 260 Z" /><glyph glyph-name="greater" unicode="&gt;" d="M404 338 L50 514 L50 622 L519 379 L519 297 L50 54 L50 162 L404 338 Z" /><glyph glyph-name="question" unicode="?" d="M-12 553 Q7 635 68 681 Q128 728 212 728 Q312 728 365 678 Q418 629 418 545 Q418 473 371 416 Q323 360 247 337 L245 187 L161 187 L159 387 Q239 405 281 444 Q323 484 323 545 Q323 588 291 614 Q260 639 214 639 Q172 639 137 615 Q102 591 86 542 L-12 553 ZM151 91 L256 91 L256 0 L151 0 L151 91 Z" /><glyph glyph-name="at" unicode="@" d="M46 354 Q49 509 151 615 Q254 721 411 726 Q567 722 667 626 Q768 530 772 393 Q772 293 730 239 Q687 187 623 187 Q575 187 546 208 Q517 229 508 265 Q450 188 366 187 Q303 187 260 228 Q218 270 218 337 Q218 423 277 483 Q335 544 408 544 Q444 544 472 529 Q512 510 533 466 L545 531 L592 524 L560 339 Q556 315 556 298 Q556 234 618 234 Q664 234 688 273 Q712 311 712 389 Q709 501 626 582 Q585 621 530 643 Q476 667 411 667 Q276 663 193 574 Q109 485 106 354 Q106 224 194 136 Q282 49 417 49 Q523 50 603 102 L634 53 Q543 -8 418 -10 Q255 -7 152 96 Q48 199 46 354 ZM286 344 Q286 301 312 275 Q337 250 378 250 Q427 250 464 291 Q501 332 501 386 Q501 426 474 454 Q448 482 409 482 Q360 482 323 441 Q286 402 286 344 Z" /><glyph glyph-name="A" unicode="a" d="M-1 0 L280 718 L384 718 L665 0 L562 0 L494 177 L171 177 L103 0 L-1 0 ZM460 266 L333 599 L205 266 L460 266 Z" /><glyph glyph-name="B" unicode="b" d="M97 718 L351 718 Q394 718 435.5 707.5 Q477 697 509.5 674.5 Q542 652 562 617 Q582 582 582 534 Q582 474 554 431.5 Q526 389 469 370 Q536 360 579 318 Q621 277 620 210 Q620 0 365 0 L97 0 L97 718 ZM367 89 Q399 89 427.5 95 Q456 101 477.5 115.5 Q499 130 512 154 Q525 178 525 214 Q525 247 509 269 Q493 291 468 304 Q443 317 414 322 Q385 327 358 327 L192 327 L192 89 L367 89 ZM192 408 L331 408 Q363 408 390.5 413.5 Q418 419 439 433 Q460 447 472 470 Q484 493 485 529 Q485 561 469 580.5 Q453 600 429 611 Q405 622 377 625.5 Q349 629 324 629 L192 629 L192 408 Z" /><glyph glyph-name="C" unicode="c" d="M648 76 Q598 35 535 13 Q472 -10 400 -10 Q232 -6 130 98 Q29 202 26 359 Q29 515 131 619 Q233 723 398 728 Q547 727 649 636 L590 552 Q514 626 395 628 Q284 627 206 551 Q129 475 127 359 Q129 241 206 166 Q284 90 397 90 Q511 90 590 158 L648 76 Z" /><glyph glyph-name="D" unicode="d" d="M326 718 Q512 718 608 623 Q704 529 704 356 Q704 195 612 97 Q521 1 337 0 L97 0 L97 718 L326 718 ZM320 87 Q475 87 542 161 Q606 233 605 356 Q605 487 538 557 Q470 629 324 629 L192 629 L192 87 L320 87 Z" /><glyph glyph-name="E" unicode="e" d="M97 718 L576 718 L576 629 L192 629 L192 410 L546 410 L546 321 L192 321 L192 89 L576 89 L576 0 L97 0 L97 718 Z" /><glyph glyph-name="F" unicode="f" d="M587 718 L587 629 L192 629 L192 403 L562 403 L562 314 L192 314 L192 0 L97 0 L97 718 L587 718 Z" /><glyph glyph-name="G" unicode="g" d="M390 394 L670 394 L670 97 Q625 50 557 21 Q490 -9 390 -10 Q221 -6 126 99 Q31 203 29 363 Q31 513 127 618 Q223 723 385 728 Q482 728 549 704 Q616 681 668 630 L614 553 Q576 589 524 608 Q461 634 394 634 Q281 632 205 560 Q130 487 127 364 Q127 243 202 164 Q277 86 396 86 Q457 86 502 100 Q547 115 575 141 L575 307 L390 307 L390 394 Z" /><glyph glyph-name="H" unicode="h" d="M190 718 L190 409 L570 409 L570 718 L664 718 L664 0 L570 0 L570 320 L190 320 L190 0 L97 0 L97 718 L190 718 Z" /><glyph glyph-name="I" unicode="i" d="M97 718 L192 718 L192 0 L97 0 L97 718 Z" /><glyph glyph-name="J" unicode="j" d="M49 159 Q72 120 102 100 Q132 78 181 78 Q236 78 270 111 Q304 144 304 219 L304 718 L399 718 L399 201 Q396 90 335 42 Q302 13 261 1 Q223 -10 188 -10 Q118 -10 66 17 Q12 46 -20 112 L49 159 Z" /><glyph glyph-name="K" unicode="k" d="M97 718 L192 718 L192 382 L195 382 L499 718 L620 718 L295 370 L637 0 L516 0 L195 356 L192 356 L192 0 L97 0 L97 718 Z" /><glyph glyph-name="L" unicode="l" d="M192 89 L500 89 L500 0 L97 0 L97 718 L192 718 L192 89 Z" /><glyph glyph-name="M" unicode="m" d="M97 718 L190 718 L447 340 L703 718 L797 718 L797 0 L703 0 L703 551 L451 191 L443 191 L190 551 L190 0 L97 0 L97 718 Z" /><glyph glyph-name="N" unicode="n" d="M212 718 L570 146 L570 718 L664 718 L664 0 L556 0 L191 581 L191 0 L97 0 L97 718 L212 718 Z" /><glyph glyph-name="O" unicode="o" d="M395 -10 Q233 -9 132 94 Q30 199 29 355 Q30 516 132 621 Q233 727 395 728 Q553 727 656 621 Q760 515 761 355 Q757 199 657 96 Q557 -6 395 -10 ZM395 83 Q512 84 587 160 Q662 237 663 355 Q662 478 587 555 Q512 633 395 634 Q279 633 203 555 Q128 478 127 355 Q128 237 204 160 Q279 84 395 83 Z" /><glyph glyph-name="P" unicode="p" d="M367 718 Q420 718 467 704.5 Q514 691 549.5 663.5 Q585 636 605.5 593.5 Q626 551 626 494 Q626 431 604 386.5 Q582 342 544 313.5 Q506 285 455.5 272 Q405 259 347 258 L192 258 L192 0 L97 0 L97 718 L367 718 ZM192 629 L192 347 L340 347 Q377 347 410.5 354 Q444 361 470 378.5 Q496 396 511.5 424 Q527 452 527 494 Q527 532 510.5 558 Q494 584 467.5 600 Q441 616 408 622.5 Q375 629 343 629 L192 629 Z" /><glyph glyph-name="Q" unicode="q" d="M761 355 Q760 214 676 116 L765 42 L700 -34 L603 51 Q516 -6 396 -10 Q235 -9 132 94 Q30 198 29 355 Q31 516 131 620 Q229 724 396 728 Q563 724 661 621 Q759 517 761 355 ZM395 83 Q471 84 526 119 L413 216 L475 287 L602 179 Q662 250 663 356 Q662 478 587 556 Q510 634 395 635 Q279 635 204 556 Q127 477 127 355 Q128 238 204 161 Q280 84 395 83 Z" /><glyph glyph-name="R" unicode="r" d="M97 718 L354 718 Q404 718 451.5 707.5 Q499 697 536 673 Q573 649 595.5 610 Q618 571 618 513 Q618 428 571.5 377.5 Q525 327 445 307 L632 0 L525 0 L346 294 L192 294 L192 0 L97 0 L97 718 ZM347 382 Q382 382 413 388 Q444 394 468 409 Q492 424 506 449.5 Q520 475 520 514 Q520 549 503.5 571 Q487 593 462 606 Q437 619 406.5 624 Q376 629 348 629 L192 629 L192 382 L347 382 Z" /><glyph glyph-name="S" unicode="s" d="M30 93 L88 169 Q137 123 191 102 Q244 82 303 82 Q372 82 411 113 Q450 144 450 198 Q450 243 415 276 Q379 309 286 333 Q165 366 112 412 Q57 457 57 541 Q57 618 124 673 Q190 728 292 728 Q442 728 532 651 L478 574 Q440 606 390 621 Q340 638 294 638 Q234 638 195 610 Q156 584 156 542 Q156 497 199 468 Q242 440 338 414 Q452 381 502 330 Q552 279 551 211 Q551 117 486 53 Q419 -10 303 -10 Q142 -10 30 93 Z" /><glyph glyph-name="T" unicode="t" d="M24 718 L595 718 L595 629 L357 629 L357 0 L262 0 L262 629 L24 629 L24 718 Z" /><glyph glyph-name="U" unicode="u" d="M177 718 L177 289 Q177 193 220 137.5 Q263 82 364 82 Q412 82 445.5 99 Q479 116 501 145 Q523 174 533 212.5 Q543 251 544 294 L544 718 L640 718 L640 283 Q635 131 561 64 Q520 25 470 8 Q420 -9 364 -9 Q225 -9 153.5 63.5 Q82 136 82 274 L82 718 L177 718 Z" /><glyph glyph-name="V" unicode="v" d="M11 718 L119 718 L360 122 L601 718 L708 718 L405 0 L315 0 L11 718 Z" /><glyph glyph-name="W" unicode="w" d="M128 718 L287 142 L461 718 L563 718 L743 142 L902 718 L1005 718 L792 0 L695 0 L513 574 L334 0 L234 0 L24 718 L128 718 Z" /><glyph glyph-name="X" unicode="x" d="M279 386 L43 718 L153 718 L339 457 L528 718 L636 718 L391 383 L665 0 L555 0 L335 308 L115 0 L6 0 L279 386 Z" /><glyph glyph-name="Y" unicode="y" d="M106 718 L314 384 L518 718 L625 718 L362 309 L362 0 L267 0 L267 306 L-2 718 L106 718 Z" /><glyph glyph-name="Z" unicode="z" d="M153 89 L608 89 L608 0 L46 0 L46 89 L470 629 L52 629 L52 718 L578 718 L578 629 L153 89 Z" /><glyph glyph-name="bracketleft" unicode="[" d="M92 -102 L92 767 L346 767 L346 686 L180 686 L180 -21 L346 -21 L346 -102 L92 -102 Z" /><glyph glyph-name="backslash" unicode="\" d="M184 809 L535 -108 L435 -108 L84 809 L184 809 Z" /><glyph glyph-name="bracketright" unicode="]" d="M88 686 L88 767 L342 767 L342 -102 L88 -102 L88 -21 L254 -21 L254 686 L88 686 Z" /><glyph glyph-name="asciicircum" unicode="^" d="M217 718 L302 718 L453 389 L378 389 L259 653 L141 389 L65 389 L217 718 Z" /><glyph glyph-name="underscore" unicode="_" d="M50 -108 L513 -108 L513 -200 L50 -200 L50 -108 Z" /><glyph glyph-name="grave" unicode="`" d="M60 704 L129 741 L231 595 L194 574 L60 704 Z" /><glyph glyph-name="a" unicode="a" d="M39 160 Q39 205 61.5 236.5 Q84 268 118 288.5 Q152 309 193.5 318 Q235 327 272 327 Q333 326 384 307 L384 331 Q384 387 353 417.5 Q322 448 266 448 Q179 448 83 408 L57 490 Q165 537 264 537 Q367 537 420.5 480.5 Q474 424 474 322 L474 0 L393 0 L386 54 Q325 -9 235 -9 Q196 -9 160.5 1.5 Q125 12 98 33 Q71 54 55 85.5 Q39 117 39 160 ZM132 161 Q132 137 142.5 120 Q153 103 169.5 92.5 Q186 82 207 77 Q228 72 249 72 Q288 74 322.5 87 Q357 100 384 129 L384 236 Q347 251 284 253 Q262 253 236.5 248.5 Q211 244 188.5 233.5 Q166 223 150 205.5 Q134 188 132 161 Z" /><glyph glyph-name="b" unicode="b" d="M99 778 L189 778 L189 473 Q260 533 351 533 Q407 533 451 512 Q495 491 525.5 455 Q556 419 572 371 Q588 323 588 270 Q588 214 573 164 Q558 114 528 76.5 Q498 39 453 17 Q408 -5 348 -5 Q294 -5 255 14 Q212 32 187 60 L180 0 L99 0 L99 778 ZM189 152 Q216 117 257.5 98 Q299 79 343 79 Q379 79 408 97 Q437 115 457 142.5 Q477 170 487.5 204 Q498 238 498 270 Q498 305 487 337.5 Q476 370 455 395 Q434 420 404 435 Q374 450 336 450 Q292 448 255 433 Q218 418 189 385 L189 152 Z" /><glyph glyph-name="c" unicode="c" d="M496 62 Q462 27 413 8 Q364 -10 311 -10 Q191 -10 115 67 Q37 145 37 259 Q38 380 116 458 Q193 537 312 537 Q367 537 417 519 Q466 500 501 464 L450 398 Q390 447 318 448 Q240 448 187 395 Q133 343 133 259 Q133 180 185 129 Q238 77 316 77 Q403 79 450 128 L496 62 Z" /><glyph glyph-name="d" unicode="d" d="M38 267 Q38 320 55.5 368.5 Q73 417 105 454 Q137 491 182.5 513 Q228 535 284 535 Q323 535 363 522.5 Q403 510 433 484 L433 778 L523 778 L523 0 L442 0 L436 53 Q410 24 369.5 8.5 Q329 -7 291 -7 Q231 -7 184 14 Q137 35 104.5 72 Q72 109 55 159 Q38 209 38 267 ZM132 268 Q132 232 143 197.5 Q154 163 175.5 136.5 Q197 110 227.5 93.5 Q258 77 297 77 Q336 78 373 93 Q410 108 433 142 L433 391 Q404 419 367.5 432.5 Q331 446 290 446 Q254 446 225 430.5 Q196 415 175.5 390 Q155 365 143.5 333 Q132 301 132 268 Z" /><glyph glyph-name="e" unicode="e" d="M135 234 Q139 160 184 117 Q229 75 307 75 Q368 75 406 95 Q444 116 474 160 L540 110 Q503 49 443 19 Q383 -10 309 -10 Q179 -10 110 66 Q40 143 40 264 Q40 384 112 461 Q183 537 294 537 Q409 537 476 466 Q543 395 543 285 Q541 259 539 234 L135 234 ZM294 448 Q231 448 191 409 Q150 371 141 314 L442 314 Q439 372 400 410 Q361 448 294 448 Z" /><glyph glyph-name="f" unicode="f" d="M33 528 L139 528 L139 661 Q139 696 151 722.5 Q163 749 183.5 766 Q204 783 231.5 791.5 Q259 800 291 800 Q311 800 328 796.5 Q345 793 361 787 L346 712 Q328 719 307 719 Q304 719 300.5 719 Q297 719 294 718 Q265 716 247.5 698 Q230 680 230 651 L230 528 L368 528 L368 445 L230 445 L230 0 L139 0 L139 445 L33 445 L33 528 Z" /><glyph glyph-name="g" unicode="g" d="M38 284 Q38 339 56 385 Q74 431 107 464 Q140 497 185.5 515.5 Q231 534 286 534 Q330 534 375 517 Q420 500 452 470 L456 528 L535 528 L535 31 Q535 -27 517 -72 Q499 -117 466.5 -147.5 Q434 -178 387.5 -194 Q341 -210 284 -210 Q224 -210 163.5 -196.5 Q103 -183 52 -148 L93 -71 Q117 -87 139.5 -97 Q162 -107 185.5 -113 Q209 -119 233.5 -121 Q258 -123 287 -123 Q359 -123 402.5 -82.5 Q446 -42 446 31 L446 99 Q415 64 371.5 48 Q328 32 283 32 Q228 32 183 51 Q138 70 105.5 103.5 Q73 137 55.5 183.5 Q38 230 38 284 ZM131 282 Q131 211 173.5 166.5 Q216 122 288 122 Q333 122 376.5 140 Q420 158 446 197 L446 377 Q416 411 375 427.5 Q334 444 289 444 Q254 444 225 431.5 Q196 419 175 397.5 Q154 376 142.5 346.5 Q131 317 131 282 Z" /><glyph glyph-name="h" unicode="h" d="M99 778 L189 778 L189 455 Q227 494 278 514.5 Q329 535 383 537 Q474 537 519 482.5 Q564 428 564 341 L564 0 L474 0 L474 320 Q474 376 449.5 411.5 Q425 447 364 447 Q314 447 269 423.5 Q224 400 189 365 L189 0 L99 0 L99 778 Z" /><glyph glyph-name="i" unicode="i" d="M182 766 L182 673 L85 673 L85 766 L182 766 ZM179 528 L179 0 L88 0 L88 528 L179 528 Z" /><glyph glyph-name="j" unicode="j" d="M-25 -111 Q9 -121 35 -121 Q52 -121 61.5 -115 Q71 -109 76.5 -99.5 Q82 -90 83.5 -77 Q85 -64 85 -50 L85 528 L176 528 L176 -67 Q176 -131 147 -167.5 Q118 -204 51 -204 Q14 -204 -39 -190 L-25 -111 ZM176 766 L176 673 L82 673 L82 766 L176 766 Z" /><glyph glyph-name="k" unicode="k" d="M189 778 L189 294 L193 294 L413 528 L525 528 L289 283 L553 0 L443 0 L193 274 L189 274 L189 0 L99 0 L99 778 L189 778 Z" /><glyph glyph-name="l" unicode="l" d="M183 778 L183 120 Q183 72 217 72 Q231 72 252 79 L263 7 Q225 -6 192 -7 Q144 -7 118 22 Q92 52 92 108 L92 778 L183 778 Z" /><glyph glyph-name="m" unicode="m" d="M89 0 L89 528 L170 528 L177 461 Q210 496 258.5 515.5 Q307 535 355 537 Q405 537 448 515.5 Q491 494 512 446 Q550 487 601.5 512 Q653 537 709 537 Q756 537 789.5 522 Q823 507 844.5 480.5 Q866 454 876 417.5 Q886 381 886 337 L886 0 L796 0 L796 320 Q796 380 769.5 416 Q743 452 680 452 Q637 452 598.5 431.5 Q560 411 531 379 L532 350 L532 0 L443 0 L443 317 Q443 346 436.5 371 Q430 396 416 414.5 Q402 433 380 443.5 Q358 454 326 454 Q244 448 179 384 L179 0 L89 0 Z" /><glyph glyph-name="n" unicode="n" d="M89 0 L89 528 L170 528 L178 456 Q214 491 264.5 514 Q315 537 366 537 Q454 537 499 485.5 Q544 434 544 349 L544 0 L454 0 L454 331 Q452 386 423.5 419 Q395 452 338 452 Q273 452 212 403 Q193 393 179 379 L179 0 L89 0 Z" /><glyph glyph-name="o" unicode="o" d="M309 -10 Q192 -10 115 67 Q37 144 37 263 Q37 384 115 460 Q192 537 309 537 Q430 537 507 459 Q582 382 582 263 Q582 144 505 67 Q428 -10 309 -10 ZM309 79 Q392 79 440 129 Q489 179 489 262 Q489 348 440 398 Q391 448 309 448 Q227 448 179 398 Q131 348 131 263 Q131 179 179 129 Q227 79 309 79 Z" /><glyph glyph-name="p" unicode="p" d="M178 528 L186 468 Q221 503 265 519.5 Q309 536 357 536 Q412 536 455 513 Q498 490 527 452.5 Q556 415 571.5 367 Q587 319 587 268 Q587 213 570.5 163 Q554 113 522.5 75.5 Q491 38 445.5 16 Q400 -6 341 -6 Q299 -6 258.5 8.5 Q218 23 187 51 L187 -200 L97 -200 L97 528 L178 528 ZM187 140 Q215 111 253.5 96 Q292 81 333 81 Q372 81 402 96.5 Q432 112 452.5 138.5 Q473 165 483 198.5 Q493 232 493 268 Q493 301 482.5 333.5 Q472 366 452 391.5 Q432 417 403 433 Q374 449 338 449 Q296 448 255.5 432 Q215 416 187 384 L187 140 Z" /><glyph glyph-name="q" unicode="q" d="M38 263 Q38 316 55.5 364.5 Q73 413 104.5 450.5 Q136 488 181.5 510.5 Q227 533 282 533 Q326 533 367.5 520 Q409 507 441 476 L448 528 L530 528 L530 -200 L440 -200 L440 52 Q411 20 367 8 Q323 -4 281 -6 Q225 -6 180 16 Q135 38 103.5 75 Q72 112 55 161 Q38 210 38 263 ZM132 264 Q132 231 142.5 198.5 Q153 166 172.5 139.5 Q192 113 221 97 Q250 81 286 81 Q331 81 371 97 Q411 113 440 148 L440 380 Q413 414 375 430 Q337 446 294 446 Q257 446 227 430.5 Q197 415 176 389.5 Q155 364 143.5 331.5 Q132 299 132 264 Z" /><glyph glyph-name="r" unicode="r" d="M259 524 Q282 534 321 535 Q360 536 377 529 L361 437 Q317 444 278 437 Q225 425 180 381 L180 0 L89 0 L89 528 L171 528 L178 463 Q207 497 259 524 Z" /><glyph glyph-name="s" unicode="s" d="M74 125 Q152 70 233 69 Q278 69 303 89 Q328 111 328 148 Q328 184 295 204 Q260 225 196 245 Q118 270 81 307 Q43 344 43 399 Q43 455 93 496 Q142 537 228 537 Q279 537 328 522 Q376 509 411 480 L370 412 Q302 454 226 456 Q188 456 165 443 Q139 429 139 399 Q139 370 163 353 Q186 337 264 312 Q345 285 384 248 Q422 211 422 149 Q422 78 370 34 Q318 -10 238 -10 Q120 -11 32 63 L74 125 Z" /><glyph glyph-name="t" unicode="t" d="M138 528 L138 692 L229 692 L229 528 L353 528 L353 445 L229 445 L229 146 Q229 132 231 119 Q233 106 239 96 Q245 86 255.5 80 Q266 74 283 74 Q312 74 345 92 L376 26 Q351 9 325.5 0 Q300 -9 270 -9 Q237 -9 212 3.5 Q187 16 170.5 37 Q154 58 146 86 Q138 114 138 145 L138 445 L30 445 L30 528 L138 528 Z" /><glyph glyph-name="u" unicode="u" d="M166 528 L166 211 Q166 150 194 112 Q222 74 287 74 Q331 74 369 93.5 Q407 113 433 148 L433 528 L524 528 L524 0 L442 0 L435 62 Q410 34 369 11 Q327 -9 271 -9 Q179 -9 127.5 42.5 Q76 94 76 186 L76 528 L166 528 Z" /><glyph glyph-name="v" unicode="v" d="M108 528 L271 127 L437 528 L536 528 L307 0 L235 0 L9 528 L108 528 Z" /><glyph glyph-name="w" unicode="w" d="M25 528 L120 528 L229 124 L346 528 L440 528 L559 128 L667 528 L761 528 L608 0 L517 0 L394 403 L270 0 L179 0 L25 528 Z" /><glyph glyph-name="x" unicode="x" d="M213 276 L29 528 L131 528 L269 338 L406 528 L507 528 L317 272 L517 0 L415 0 L263 206 L111 0 L10 0 L213 276 Z" /><glyph glyph-name="y" unicode="y" d="M109 528 L270 146 L418 528 L516 528 L263 -110 Q243 -155 202.5 -176.5 Q162 -198 114 -198 Q61 -198 31 -189 L43 -117 Q69 -123 93 -123 Q131 -123 154 -108.5 Q177 -94 191 -59 L224 27 L11 528 L109 528 Z" /><glyph glyph-name="z" unicode="z" d="M46 0 L46 59 L336 445 L46 445 L46 528 L460 528 L460 461 L171 84 L475 84 L475 0 L46 0 Z" /><glyph glyph-name="braceleft" unicode="{" d="M56 302 L56 374 L86 374 Q148 374 177.5 400 Q207 426 207 489 L207 587 Q206 647 230 691 Q244 716 267 733 Q290 750 317.5 761.5 Q345 773 374 780.5 Q403 788 428 792 L445 732 Q340 708 314 677 Q297 657 294.5 630 Q292 603 292 578 L292 480 Q292 424 272 390.5 Q252 357 198 338 L207 335 Q257 315 274.5 281.5 Q292 248 292 196 L292 98 Q292 82 292.5 65.5 Q293 49 297 34 Q301 19 309.5 6 Q318 -7 333 -17 Q365 -39 445 -57 L427 -117 Q379 -108 338.5 -95 Q298 -82 268.5 -59.5 Q239 -37 223 -1.5 Q207 34 207 89 L207 187 Q207 250 177.5 276 Q148 302 87 302 L56 302 Z" /><glyph glyph-name="bar" unicode="|" d="M62 809 L156 809 L156 -108 L62 -108 L62 809 Z" /><glyph glyph-name="braceright" unicode="}" d="M63 -117 L45 -57 Q149 -33 176 -1 Q191 15 195 40 Q199 64 199 98 L198 196 Q198 257 220 289 Q242 321 292 338 Q244 353 221 386 Q198 419 198 480 L199 578 Q199 612 195 636 Q190 671 158 692 Q125 713 45 732 L62 792 Q227 761 262 689 Q285 646 284 587 L283 489 Q283 430 312 402 Q339 374 405 374 L434 374 L434 302 L404 302 Q340 302 312 274 Q283 246 283 187 L284 89 Q285 29 262 -14 Q227 -86 63 -117 Z" /><glyph glyph-name="asciitilde" unicode="~" d="M56 296 Q95 406 178 405 Q207 404 263 380 Q317 355 342 354 Q367 354 383 365 Q399 378 412 409 L464 380 Q448 331 417 303 Q385 275 343 275 Q315 275 261 300 Q207 326 181 327 Q157 327 140 314 Q122 301 110 266 L56 296 Z" /><glyph glyph-name="exclamdown" unicode="¡" d="M115 -205 L118 -101 L130 322 L193 322 L205 -101 L208 -205 L115 -205 ZM161 417 Q134 417 114.5 436.5 Q95 456 95 487 Q95 518 114.5 537.5 Q134 557 161 557 Q189 557 208 537.5 Q227 518 227 487 Q227 456 208 436.5 Q189 417 161 417 Z" /><glyph glyph-name="cent" unicode="¢" d="M268 344 Q269 394 284 439.5 Q299 485 327 521 Q355 557 395 582.5 Q435 608 485 617 L485 718 L580 718 L580 620 Q667 611 732 548 L680 483 Q653 506 618.5 519.5 Q584 533 549 533 Q509 533 474.5 519 Q440 505 415.5 480 Q391 455 377 420.5 Q363 386 363 344 Q363 305 377 271.5 Q391 238 415.5 213.5 Q440 189 474 175.5 Q508 162 547 162 Q584 162 619.5 174.5 Q655 187 681 213 L727 147 Q697 117 659.5 100 Q622 83 580 77 L580 -20 L485 -20 L485 80 Q436 89 396 113 Q356 137 327.5 171.5 Q299 206 283.5 250.5 Q268 295 268 344 Z" /><glyph glyph-name="sterling" unicode="£" d="M287 87 L344 87 L344 336 L287 336 L287 424 L344 424 L344 548 Q344 645 397 696 Q450 747 547 747 Q628 746 698 715 L674 635 Q648 646 618.5 652.5 Q589 659 555 661 Q493 661 465.5 630 Q438 599 438 539 L438 424 L628 424 L628 336 L438 336 L438 87 L713 87 L713 0 L287 0 L287 87 Z" /><glyph glyph-name="yen" unicode="¥" d="M134 718 L322 404 L510 718 L593 718 L393 391 L537 391 L537 335 L364 335 L364 222 L536 222 L536 166 L364 166 L364 0 L285 0 L285 166 L113 166 L113 222 L285 222 L285 335 L114 335 L114 391 L252 391 L51 718 L134 718 Z" /><glyph glyph-name="brokenbar" unicode="¦" d="M103 325 L103 838 L167 838 L167 325 L103 325 ZM103 -279 L103 239 L167 239 L167 -279 L103 -279 Z" /><glyph glyph-name="guillemotleft" unicode="«" d="M203 74 L50 248 L50 316 L203 490 L242 456 L110 282 L242 105 L203 74 ZM379 74 L227 248 L227 316 L379 490 L418 456 L287 282 L418 105 L379 74 Z" /><glyph glyph-name="uniAD" unicode="­&#x2011;" d="M46 245 L46 315 L302 315 L302 245 L46 245 Z" /><glyph glyph-name="macron" unicode="¯" d="M155 671 L155 735 L451 735 L451 671 L155 671 Z" /><glyph glyph-name="degree" unicode="°" d="M245 399 Q173 399 127 446 Q80 494 80 563 Q80 633 127 680 Q173 728 245 728 Q316 728 363 680 Q410 633 410 563 Q410 494 363 446 Q316 399 245 399 ZM245 457 Q288 457 318 487 Q347 518 347 562 Q347 608 318 637 Q289 668 245 668 Q201 668 172 638 Q143 608 143 563 Q143 518 172 487 Q202 457 245 457 Z" /><glyph glyph-name="plusminus" unicode="±" d="M285 478 L285 662 L380 662 L380 478 L593 478 L593 387 L380 387 L380 203 L285 203 L285 387 L72 387 L72 478 L285 478 ZM72 143 L593 143 L593 52 L72 52 L72 143 Z" /><glyph glyph-name="uniB7" unicode="·" d="M191 395 L191 297 L87 297 L87 395 L191 395 Z" /><glyph glyph-name="cedilla" unicode="¸" d="M214 -253 L205 -208 Q274 -203 300 -190 Q326 -177 326 -152 Q326 -110 240 -98 L288 3 L348 3 L316 -72 Q354 -81 375.5 -98.5 Q397 -116 397 -150 Q397 -199 349.5 -224 Q302 -249 214 -253 Z" /><glyph glyph-name="guillemotright" unicode="»" d="M99 74 L60 105 L192 282 L60 456 L99 490 L252 316 L252 248 L99 74 ZM276 74 L237 105 L369 282 L237 456 L276 490 L429 316 L429 248 L276 74 Z" /><glyph glyph-name="questiondown" unicode="¿" d="M240 -219 Q156 -219 104.5 -171 Q53 -123 53 -41 Q53 11 78 51.5 Q103 92 134 129 Q170 170 195 215.5 Q220 261 215 322 L296 322 Q304 249 276.5 196.5 Q249 144 211 102 Q183 69 162.5 36.5 Q142 4 142 -34 Q142 -80 169.5 -112 Q197 -144 250 -144 Q325 -144 379 -79 L432 -127 Q396 -168 348.5 -193.5 Q301 -219 240 -219 ZM253 417 Q226 417 206.5 436.5 Q187 456 187 487 Q187 518 206.5 537.5 Q226 557 253 557 Q281 557 300 537.5 Q319 518 319 487 Q319 456 300 436.5 Q281 417 253 417 Z" /><glyph glyph-name="multiply" unicode="×" d="M72 524 L130 582 L316 396 L502 582 L561 524 L374 338 L561 152 L502 94 L316 279 L130 94 L72 152 L257 338 L72 524 Z" /><glyph glyph-name="divide" unicode="÷" d="M564 292 L72 292 L72 381 L564 381 L564 292 ZM271 492 L271 588 L366 588 L366 492 L271 492 ZM366 184 L366 88 L271 88 L271 184 L366 184 Z" /><glyph glyph-name="circumflex" unicode="&#x2c6;" d="M231 722 L131 590 L40 590 L177 757 L287 757 L424 590 L333 590 L233 722 L231 722 Z" /><glyph glyph-name="caron" unicode="&#x2c7;" d="M258 710 L168 710 L56 837 L106 865 L212 751 L320 865 L370 837 L258 710 Z" /><glyph glyph-name="uni2C9" unicode="&#x2c9;" d="M329 759 L56 759 L56 819 L329 819 L329 759 Z" /><glyph glyph-name="uni2CA" unicode="&#x2ca;" d="M267 826 L98 702 L56 739 L213 877 L267 826 Z" /><glyph glyph-name="uni2CB" unicode="&#x2cb;" d="M225 702 L56 826 L110 877 L267 739 L225 702 Z" /><glyph glyph-name="uni2DC" unicode="&#x2dc;" d="M142 730 Q188 730 255 685 Q310 647 333 648 Q367 648 367 720 L430 720 Q430 590 348 590 Q303 590 234 636 Q182 672 157 672 Q123 672 123 590 L60 590 Q60 730 142 730 Z" /><glyph glyph-name="uni391" unicode="&#x391;" d="M28 0 L309 718 L413 718 L694 0 L591 0 L523 177 L200 177 L132 0 L28 0 ZM489 266 L362 599 L234 266 L489 266 Z" /><glyph glyph-name="uni392" unicode="&#x392;" d="M85 718 L339 718 Q382 718 423.5 707.5 Q465 697 497.5 674.5 Q530 652 550 617 Q570 582 570 534 Q570 474 542 431.5 Q514 389 457 370 Q524 360 567 318 Q609 277 608 210 Q608 0 353 0 L85 0 L85 718 ZM355 89 Q387 89 415.5 95 Q444 101 465.5 115.5 Q487 130 500 154 Q513 178 513 214 Q513 247 497 269 Q481 291 456 304 Q431 317 402 322 Q373 327 346 327 L180 327 L180 89 L355 89 ZM180 408 L319 408 Q351 408 378.5 413.5 Q406 419 427 433 Q448 447 460 470 Q472 493 473 529 Q473 561 457 580.5 Q441 600 417 611 Q393 622 365 625.5 Q337 629 312 629 L180 629 L180 408 Z" /><glyph glyph-name="uni393" unicode="&#x393;" d="M488 629 L180 629 L180 0 L85 0 L85 718 L488 718 L488 629 Z" /><glyph glyph-name="uni394" unicode="&#x394;" d="M694 0 L28 0 L309 718 L413 718 L694 0 ZM166 89 L557 89 L361 599 L166 89 Z" /><glyph glyph-name="uni395" unicode="&#x395;" d="M85 718 L564 718 L564 629 L180 629 L180 410 L534 410 L534 321 L180 321 L180 89 L564 89 L564 0 L85 0 L85 718 Z" /><glyph glyph-name="uni396" unicode="&#x396;" d="M176 89 L631 89 L631 0 L69 0 L69 89 L493 629 L75 629 L75 718 L601 718 L601 629 L176 89 Z" /><glyph glyph-name="uni397" unicode="&#x397;" d="M178 718 L178 409 L558 409 L558 718 L652 718 L652 0 L558 0 L558 320 L178 320 L178 0 L85 0 L85 718 L178 718 Z" /><glyph glyph-name="uni398" unicode="&#x398;" d="M225 403 L629 403 L629 324 L225 324 L225 403 ZM427 -10 Q261 -6 165 96 Q69 199 67 355 Q67 516 167 621 Q267 728 427 728 Q587 725 686 620 Q785 516 786 355 Q784 199 686 96 Q589 -6 427 -10 ZM427 83 Q542 84 616 160 Q688 236 689 355 Q688 478 616 555 Q543 633 427 634 Q311 633 239 555 Q166 478 165 355 Q166 236 239 160 Q312 84 427 83 Z" /><glyph glyph-name="uni399" unicode="&#x399;" d="M85 718 L180 718 L180 0 L85 0 L85 718 Z" /><glyph glyph-name="uni39A" unicode="&#x39a;" d="M85 718 L180 718 L180 382 L183 382 L487 718 L608 718 L283 370 L625 0 L504 0 L183 356 L180 356 L180 0 L85 0 L85 718 Z" /><glyph glyph-name="uni39B" unicode="&#x39b;" d="M309 718 L413 718 L694 0 L591 0 L361 599 L132 0 L28 0 L309 718 Z" /><glyph glyph-name="uni39C" unicode="&#x39c;" d="M85 718 L178 718 L435 340 L691 718 L785 718 L785 0 L691 0 L691 551 L439 191 L431 191 L178 551 L178 0 L85 0 L85 718 Z" /><glyph glyph-name="uni39D" unicode="&#x39d;" d="M200 718 L558 146 L558 718 L652 718 L652 0 L544 0 L179 581 L179 0 L85 0 L85 718 L200 718 Z" /><glyph glyph-name="uni39E" unicode="&#x39e;" d="M62 89 L528 89 L528 0 L62 0 L62 89 ZM62 718 L528 718 L528 629 L62 629 L62 718 ZM498 410 L498 321 L92 321 L92 410 L498 410 Z" /><glyph glyph-name="uni39F" unicode="&#x39f;" d="M433 -10 Q271 -9 170 94 Q68 199 67 355 Q68 516 170 621 Q271 727 433 728 Q591 727 694 621 Q798 515 799 355 Q795 199 695 96 Q595 -6 433 -10 ZM433 83 Q550 84 625 160 Q700 237 701 355 Q700 478 625 555 Q550 633 433 634 Q317 633 241 555 Q166 478 165 355 Q166 237 242 160 Q317 84 433 83 Z" /><glyph glyph-name="uni3A0" unicode="&#x3a0;" d="M85 718 L652 718 L652 0 L558 0 L558 629 L178 629 L178 0 L85 0 L85 718 Z" /><glyph glyph-name="uni3A1" unicode="&#x3a1;" d="M359 718 Q412 718 458.5 704.5 Q505 691 539.5 663 Q574 635 594 593 Q614 551 614 494 Q614 432 592.5 387.5 Q571 343 534 314.5 Q497 286 447 272.5 Q397 259 340 258 L180 258 L180 0 L85 0 L85 718 L359 718 ZM180 629 L180 346 L333 346 Q369 346 402 354 Q435 362 460 379.5 Q485 397 500 425.5 Q515 454 515 494 Q515 532 498.5 558 Q482 584 455.5 599.5 Q429 615 396.5 622 Q364 629 332 629 L180 629 Z" /><glyph glyph-name="uni3A3" unicode="&#x3a3;" d="M65 629 L65 718 L538 718 L538 629 L179 629 L420 375 L179 89 L542 89 L542 0 L65 0 L65 89 L307 374 L65 629 Z" /><glyph glyph-name="uni3A4" unicode="&#x3a4;" d="M34 718 L605 718 L605 629 L367 629 L367 0 L272 0 L272 629 L34 629 L34 718 Z" /><glyph glyph-name="uni3A5" unicode="&#x3a5;" d="M136 718 L344 384 L548 718 L655 718 L392 309 L392 0 L297 0 L297 306 L28 718 L136 718 Z" /><glyph glyph-name="uni3A6" unicode="&#x3a6;" d="M67 360 Q68 433 94 489 Q120 545 164 584 Q208 623 267.5 645 Q327 667 395 672 L395 718 L490 718 L490 672 Q559 666 618.5 644.5 Q678 623 721.5 584 Q765 545 791 489.5 Q817 434 819 360 Q818 287 792 231 Q766 175 722 136 Q678 97 618 74.5 Q558 52 490 47 L490 0 L395 0 L395 47 Q327 52 267.5 74.5 Q208 97 164 136 Q120 175 94 231 Q68 287 67 360 ZM490 131 Q541 136 584.5 151.5 Q628 167 659.5 195 Q691 223 708.5 264 Q726 305 727 360 Q726 415 708 456 Q690 497 658.5 525 Q627 553 584 569 Q541 585 490 590 L490 131 ZM158 360 Q159 305 176.5 264 Q194 223 225.5 195 Q257 167 300.5 151.5 Q344 136 395 131 L395 590 Q344 584 301 568.5 Q258 553 226.5 525 Q195 497 177 456.5 Q159 416 158 360 Z" /><glyph glyph-name="uni3A7" unicode="&#x3a7;" d="M301 386 L65 718 L175 718 L361 457 L550 718 L658 718 L413 383 L687 0 L577 0 L357 308 L137 0 L28 0 L301 386 Z" /><glyph glyph-name="uni3A8" unicode="&#x3a8;" d="M35 718 L129 718 Q135 565 187 501 Q211 468 247.5 449.5 Q284 431 324 427 L324 718 L419 718 L419 428 Q477 436 514 463 Q551 490 573 529.5 Q595 569 604.5 617.5 Q614 666 617 718 L711 718 Q704 546 633 454 Q594 403 538.5 373.5 Q483 344 419 338 L419 0 L324 0 L324 338 Q243 346 188.5 379 Q134 412 100.5 463 Q67 514 52 579.5 Q37 645 35 718 Z" /><glyph glyph-name="uni3A9" unicode="&#x3a9;" d="M57 394 Q58 467 82.5 527.5 Q107 588 150.5 631.5 Q194 675 254 700.5 Q314 726 387 728 Q464 727 525 702 Q586 677 629 632.5 Q672 588 695 525.5 Q718 463 718 386 Q718 286 672.5 213.5 Q627 141 544 87 L710 87 L710 0 L451 0 L451 95 Q535 139 578 211.5 Q621 284 621 378 Q621 435 607 483 Q593 531 564.5 565.5 Q536 600 492 619.5 Q448 639 387 639 Q330 639 286.5 620 Q243 601 213.5 567 Q184 533 168.5 486.5 Q153 440 153 386 Q155 292 194.5 215 Q234 138 321 94 L321 0 L62 0 L62 87 L228 87 Q144 143 100.5 217.5 Q57 292 57 394 Z" /><glyph glyph-name="uni3B1" unicode="&#x3b1;" d="M628 0 L534 0 Q514 80 491 165 Q452 79 400 35 Q347 -10 275 -10 Q167 -7 111 68 Q54 143 54 257 Q55 378 117 457 Q177 535 289 537 Q361 537 412 496 Q463 455 493 372 Q519 455 532 528 L624 528 Q589 396 538 264 Q585 143 628 0 ZM290 66 Q338 66 375 108 Q421 157 456 267 Q402 462 296 462 Q229 462 189 408 Q147 353 147 261 Q147 171 186 118 Q224 66 290 66 Z" /><glyph glyph-name="uni3B2" unicode="&#x3b2;" d="M74 542 Q74 596 87 640 Q100 684 126.5 715.5 Q153 747 194 764 Q235 781 292 781 Q334 780 371 768.5 Q408 757 436 734.5 Q464 712 480 678 Q496 644 496 599 Q496 463 371 422 Q410 411 442 393 Q474 375 497 349 Q520 323 533 289 Q546 255 546 213 Q546 157 526.5 116 Q507 75 473 48 Q439 21 393.5 7.5 Q348 -6 296 -6 Q234 -6 165 20 L165 -190 L74 -190 L74 542 ZM453 214 Q453 261 434 292.5 Q415 324 384 343 Q353 362 313.5 370 Q274 378 234 379 L234 446 Q267 447 298 456 Q329 465 353 483 Q377 501 391 528 Q405 555 405 592 Q405 644 374 675 Q343 706 291 706 Q253 706 228.5 693 Q204 680 190 658 Q176 636 170.5 606 Q165 576 165 543 L165 98 Q221 68 281 68 Q318 68 349.5 75.5 Q381 83 404 100.5 Q427 118 440 146 Q453 174 453 214 Z" /><glyph glyph-name="uni3B3" unicode="&#x3b3;" d="M34 528 L135 528 Q191 426 234 318 Q277 210 303 97 Q427 304 447 528 L540 528 Q527 384 473 251 Q419 118 331 4 L331 -210 L240 -210 L240 -11 Q232 55 211 126 Q190 197 161.5 267 Q133 337 100 404 Q67 471 34 528 Z" /><glyph glyph-name="uni3B4" unicode="&#x3b4;" d="M569 251 Q569 131 499 61 Q428 -10 310 -10 Q200 -10 127 61 Q54 133 54 245 Q54 331 103 398 Q153 467 252 498 Q202 532 178 569 Q154 606 154 654 Q154 711 205 749 Q256 788 341 788 Q439 787 502 770 L487 691 Q431 713 346 713 Q310 713 283 702 Q266 695 257 683 Q246 670 246 651 Q246 614 282 581 Q316 548 375 510 Q451 464 510 400 Q536 370 553 333 Q569 296 569 251 ZM477 248 Q475 321 432 364 Q409 388 381 408 Q353 427 323 446 Q239 429 193 377 Q146 324 146 249 Q146 169 193 117 Q240 67 312 67 Q386 67 432 116 Q477 167 477 248 Z" /><glyph glyph-name="uni3B5" unicode="&#x3b5;" d="M284 59 Q364 61 434 92 L451 26 Q370 -9 268 -10 Q173 -10 114 30 Q54 70 54 143 Q54 192 84 225 Q115 259 166 272 Q123 286 99 319 Q74 352 74 393 Q74 461 128 499 Q183 537 271 537 Q358 535 431 506 L414 438 Q347 470 280 469 Q230 469 199 448 Q168 428 168 389 Q168 348 202 326 Q235 304 298 304 L369 304 L369 237 L290 237 Q221 237 185 212 Q148 188 148 149 Q148 106 186 82 Q224 59 284 59 Z" /><glyph glyph-name="uni3B6" unicode="&#x3b6;" d="M396 -163 L317 -140 Q361 -74 360 -41 Q360 -30 355 -21 Q347 -9 333 -4 Q322 0 302 0 Q180 0 115 52 Q50 105 50 219 Q51 307 93 389 Q136 471 208 557 L331 703 L117 703 L117 778 L441 778 L441 706 L285 527 Q227 459 188 386 Q148 313 147 235 Q147 154 195 119 Q243 85 340 85 Q398 85 427 59 Q457 34 457 -18 Q457 -48 441 -84 Q424 -121 396 -163 Z" /><glyph glyph-name="uni3B7" unicode="&#x3b7;" d="M351 537 Q434 537 481 489 Q529 441 529 349 L529 -210 L439 -210 L439 332 Q438 396 403 425 Q370 452 323 452 Q259 452 197 403 Q178 392 164 379 L164 0 L74 0 L74 528 L155 528 L163 456 Q196 487 246 512 Q294 537 351 537 Z" /><glyph glyph-name="uni3B8" unicode="&#x3b8;" d="M54 387 Q54 427 58.5 471.5 Q63 516 74.5 560 Q86 604 104.5 644 Q123 684 150.5 714.5 Q178 745 216.5 763.5 Q255 782 305 782 Q382 782 431 743 Q480 704 508.5 645 Q537 586 548 517 Q559 448 559 387 Q559 346 554.5 300.5 Q550 255 539 211.5 Q528 168 509.5 128.5 Q491 89 462.5 58.5 Q434 28 395.5 9.5 Q357 -9 305 -10 Q229 -10 180 29.5 Q131 69 103 128.5 Q75 188 64.5 257.5 Q54 327 54 387 ZM471 430 Q469 467 461 514 Q453 561 434.5 602.5 Q416 644 384.5 672.5 Q353 701 305 701 Q258 701 227.5 672 Q197 643 178 601 Q159 559 151 512.5 Q143 466 141 430 L471 430 ZM141 342 Q143 307 151.5 260 Q160 213 178.5 171 Q197 129 227.5 100 Q258 71 305 71 Q352 71 383 100 Q414 129 433 170.5 Q452 212 460.5 259 Q469 306 471 342 L141 342 Z" /><glyph glyph-name="uni3B9" unicode="&#x3b9;" d="M165 528 L165 120 Q165 72 199 72 Q213 72 234 79 L245 6 Q207 -7 174 -7 Q126 -7 100 22 Q74 51 74 108 L74 528 L165 528 Z" /><glyph glyph-name="uni3BA" unicode="&#x3ba;" d="M164 528 L164 302 L318 478 Q344 508 370 518 Q396 528 434 528 L481 528 L481 450 L437 450 Q416 450 401 441.5 Q386 433 372 419 L254 285 L506 0 L394 0 L164 267 L164 0 L74 0 L74 528 L164 528 Z" /><glyph glyph-name="uni3BB" unicode="&#x3bb;" d="M544 0 L445 0 L296 387 L134 0 L36 0 L250 506 L218 591 Q204 629 181 644 Q158 660 121 660 Q98 660 73 655 L61 726 Q90 735 142 735 Q186 735 228 714 Q269 693 291 642 L544 0 Z" /><glyph glyph-name="uni3BC" unicode="&#x3bc;" d="M164 528 L164 211 Q164 150 192 112 Q220 74 285 74 Q329 74 367 93.5 Q405 113 431 148 L431 528 L522 528 L522 0 L440 0 L433 62 Q400 25 363.5 8.5 Q327 -8 277 -10 Q246 -10 214 1.5 Q182 13 164 40 L164 -210 L74 -210 L74 528 L164 528 Z" /><glyph glyph-name="uni3BD" unicode="&#x3bd;" d="M36 528 L131 528 L303 104 Q333 153 362.5 203 Q392 253 415.5 305.5 Q439 358 454 413.5 Q469 469 472 528 L567 528 Q558 401 501 282 Q444 164 342 0 L261 0 L36 528 Z" /><glyph glyph-name="uni3BE" unicode="&#x3be;" d="M346 68 Q406 61 433 34 Q459 9 459 -37 Q457 -93 394 -156 L310 -140 Q366 -79 364 -51 Q364 -27 345 -17 Q325 -6 286 -1 Q175 11 110 66 Q44 122 44 218 Q44 296 91 351 Q138 406 213 428 Q159 444 130 479 Q100 514 100 559 Q100 603 132 640 Q163 678 221 698 L77 698 L77 772 L421 772 L421 700 Q322 693 256 658 Q190 624 188 562 Q188 518 229 487 Q269 456 331 455 L389 455 L389 377 L331 377 Q255 378 199 342 Q143 306 140 225 Q140 150 192 113 Q245 77 346 68 Z" /><glyph glyph-name="uni3BF" unicode="&#x3bf;" d="M326 -10 Q209 -10 132 67 Q54 144 54 263 Q54 384 132 460 Q209 537 326 537 Q447 537 524 459 Q599 382 599 263 Q599 144 522 67 Q445 -10 326 -10 ZM326 79 Q409 79 457 129 Q506 179 506 262 Q506 348 457 398 Q408 448 326 448 Q244 448 196 398 Q148 348 148 263 Q148 179 196 129 Q244 79 326 79 Z" /><glyph glyph-name="pi" unicode="&#x3c0;" d="M32 448 L32 528 L607 528 L607 448 L514 448 L514 155 Q514 131 520.5 116.5 Q527 102 539 94 Q551 86 568 83 Q585 80 606 79 L606 0 Q533 0 482 23 Q447 41 434.5 76 Q422 111 422 148 L422 448 L234 448 L171 0 L79 0 L143 448 L32 448 Z" /><glyph glyph-name="uni3C1" unicode="&#x3c1;" d="M69 -210 L69 261 Q69 382 146 459 Q223 537 340 537 Q458 537 536 459 Q614 382 614 261 Q614 143 536 67 Q459 -10 341 -10 Q285 -10 238 11 Q192 33 163 69 L163 -210 L69 -210 ZM341 74 Q417 74 469 126 Q520 178 520 261 Q520 346 469 400 Q417 454 340 454 Q265 454 214 400 Q163 347 163 261 Q163 178 214 126 Q265 74 341 74 Z" /><glyph glyph-name="uni3C3" unicode="&#x3c3;" d="M54 263 Q54 322 74 372.5 Q94 423 130 459.5 Q166 496 216 516.5 Q266 537 326 537 Q374 537 414 525 L630 525 L630 445 L537 445 Q599 371 599 263 Q599 203 578.5 153 Q558 103 522 67 Q486 31 436 10.5 Q386 -10 326 -10 Q267 -10 217 10.5 Q167 31 131 67.5 Q95 104 74.5 154 Q54 204 54 263 ZM148 263 Q148 180 194.5 129.5 Q241 79 326 79 Q410 79 458 129 Q506 179 506 262 Q506 304 494 338 Q482 372 458.5 396.5 Q435 421 401.5 434.5 Q368 448 326 448 Q284 448 250.5 434.5 Q217 421 194.5 396.5 Q172 372 160 338 Q148 304 148 263 Z" /><glyph glyph-name="uni3C4" unicode="&#x3c4;" d="M362 528 L362 445 L238 445 L238 145 Q238 121 246 100.5 Q254 80 281 76 Q286 75 296 75 Q324 75 354 92 L385 26 Q333 -8 283 -8 Q273 -8 268 -7 Q237 -5 214.5 8 Q192 21 177 42 Q162 63 154.5 89.5 Q147 116 147 144 L147 445 L39 445 L39 528 L362 528 Z" /><glyph glyph-name="uni3C5" unicode="&#x3c5;" d="M69 528 L156 528 L156 210 Q156 142 192 106 Q228 70 296 70 Q333 70 359.5 82.5 Q386 95 402.5 117 Q419 139 426.5 168.5 Q434 198 434 232 Q434 312 415 386 Q396 460 353 528 L448 528 Q487 461 504.5 385 Q522 309 522 232 Q522 179 507 134.5 Q492 90 463 58 Q434 26 391.5 8 Q349 -10 294 -10 Q245 -10 203.5 4 Q162 18 132 45.5 Q102 73 85.5 112.5 Q69 152 69 203 L69 528 Z" /><glyph glyph-name="uni3C6" unicode="&#x3c6;" d="M54 268 Q54 301 61.5 337 Q69 373 82.5 407.5 Q96 442 115 473 Q134 504 158 528 L258 528 Q204 475 173 410 Q142 345 142 268 Q142 225 155 189.5 Q168 154 192.5 128 Q217 102 251.5 86.5 Q286 71 329 69 L329 389 Q329 461 367 499.5 Q405 538 477 538 Q534 538 575 514 Q616 490 642.5 451.5 Q669 413 682 364 Q695 315 695 265 Q696 202 675 153 Q654 104 616.5 69.5 Q579 35 527.5 16 Q476 -3 416 -5 L416 -210 L329 -210 L329 -5 Q267 -4 216.5 15.5 Q166 35 130 70 Q94 105 74 155 Q54 205 54 268 ZM416 69 Q459 71 494.5 86.5 Q530 102 555 128 Q580 154 593.5 189.5 Q607 225 607 268 Q607 297 600.5 331 Q594 365 579 394.5 Q564 424 539.5 444 Q515 464 479 464 Q443 464 429.5 444 Q416 424 416 391 L416 69 Z" /><glyph glyph-name="uni3C7" unicode="&#x3c7;" d="M33 -205 L249 190 L138 424 Q130 442 121 446 Q111 452 94 452 L56 452 L56 528 L104 528 Q144 528 167.5 514.5 Q191 501 209 465 L299 274 Q331 337 364 400.5 Q397 464 429 528 L531 528 L341 188 Q375 115 408.5 43 Q442 -29 476 -102 Q488 -130 517 -130 L557 -130 L557 -208 L504 -208 Q466 -208 441 -192.5 Q416 -177 400 -141 L290 104 L132 -205 L33 -205 Z" /><glyph glyph-name="uni3C8" unicode="&#x3c8;" d="M69 528 L156 528 L156 264 Q156 180 198 128.5 Q240 77 327 72 L327 641 L415 641 L415 72 Q501 77 543.5 128.5 Q586 180 586 264 L586 528 L673 528 L673 264 Q671 136 607.5 68 Q544 0 415 -5 L415 -210 L327 -210 L327 -5 Q200 0 134.5 68.5 Q69 137 69 264 L69 528 Z" /><glyph glyph-name="uni3C9" unicode="&#x3c9;" d="M142 528 L240 528 Q199 468 174.5 398 Q150 328 150 255 Q150 227 155 194.5 Q160 162 172.5 134.5 Q185 107 207.5 88.5 Q230 70 266 70 Q298 70 317 85 Q336 100 347 122.5 Q358 145 361.5 172 Q365 199 365 224 L365 409 L452 409 L452 224 Q452 200 455.5 172.5 Q459 145 469.5 122.5 Q480 100 499 85 Q518 70 549 70 Q604 70 635 119 Q664 171 664 255 Q664 330 640.5 398.5 Q617 467 575 528 L674 528 Q712 468 733 397 Q754 326 754 255 Q754 207 743 160 Q732 113 708 75.5 Q684 38 645.5 14.5 Q607 -9 552 -10 Q528 -10 505.5 -3 Q483 4 464 17 Q445 30 430.5 48.5 Q416 67 409 90 L407 90 Q389 41 352 15.5 Q315 -10 263 -10 Q208 -9 170 14.5 Q132 38 108 75.5 Q84 113 73 160 Q62 207 62 255 Q67 399 142 528 Z" /><glyph glyph-name="uni401" unicode="&#x401;" d="M85 718 L564 718 L564 629 L180 629 L180 410 L534 410 L534 321 L180 321 L180 89 L564 89 L564 0 L85 0 L85 718 ZM462 836 L462 766 L378 766 L378 836 L462 836 ZM259 836 L259 766 L175 766 L175 836 L259 836 Z" /><glyph glyph-name="uni410" unicode="&#x410;" d="M28 0 L309 718 L413 718 L694 0 L591 0 L523 177 L200 177 L132 0 L28 0 ZM489 266 L362 599 L234 266 L489 266 Z" /><glyph glyph-name="uni411" unicode="&#x411;" d="M497 718 L497 629 L179 629 L179 418 L342 418 Q388 418 434 407 Q480 396 517 372 Q554 348 577 310.5 Q600 273 600 220 Q600 160 579 118 Q558 76 522 50 Q486 24 438 12 Q390 0 336 0 L84 0 L84 718 L497 718 ZM179 330 L179 89 L328 89 Q435 91 472 129 Q491 146 498 168 Q504 191 504 214 Q504 249 488 271 Q472 293 447 306.5 Q422 320 392 325 Q362 330 334 330 L179 330 Z" /><glyph glyph-name="uni412" unicode="&#x412;" d="M85 718 L339 718 Q382 718 423.5 707.5 Q465 697 497.5 674.5 Q530 652 550 617 Q570 582 570 534 Q570 474 542 431.5 Q514 389 457 370 Q524 360 567 318 Q609 277 608 210 Q608 0 353 0 L85 0 L85 718 ZM355 89 Q387 89 415.5 95 Q444 101 465.5 115.5 Q487 130 500 154 Q513 178 513 214 Q513 247 497 269 Q481 291 456 304 Q431 317 402 322 Q373 327 346 327 L180 327 L180 89 L355 89 ZM180 408 L319 408 Q351 408 378.5 413.5 Q406 419 427 433 Q448 447 460 470 Q472 493 473 529 Q473 561 457 580.5 Q441 600 417 611 Q393 622 365 625.5 Q337 629 312 629 L180 629 L180 408 Z" /><glyph glyph-name="uni413" unicode="&#x413;" d="M488 629 L180 629 L180 0 L85 0 L85 718 L488 718 L488 629 Z" /><glyph glyph-name="uni414" unicode="&#x414;" d="M98 89 Q136 140 160.5 188.5 Q185 237 199.5 288 Q214 339 220 394 Q226 449 226 511 L226 718 L636 718 L636 89 L732 89 L717 -158 L639 -158 L639 0 L124 0 L124 -158 L44 -158 L31 89 L98 89 ZM541 89 L541 629 L317 629 L317 506 Q317 447 312 393 Q307 339 294.5 288 Q282 237 260 188 Q238 139 204 89 L541 89 Z" /><glyph glyph-name="uni415" unicode="&#x415;" d="M85 718 L564 718 L564 629 L180 629 L180 410 L534 410 L534 321 L180 321 L180 89 L564 89 L564 0 L85 0 L85 718 Z" /><glyph glyph-name="uni416" unicode="&#x416;" d="M25 0 L367 370 L42 718 L163 718 L468 382 L471 382 L471 718 L566 718 L566 382 L569 382 L873 718 L994 718 L669 370 L1011 0 L890 0 L570 356 L566 356 L566 0 L471 0 L471 356 L467 356 L147 0 L25 0 Z" /><glyph glyph-name="uni417" unicode="&#x417;" d="M49 135 L121 184 Q178 78 317 78 Q406 78 456 111 Q506 145 506 212 Q506 270 456 304 Q404 338 308 338 L246 338 L246 412 L307 412 Q390 412 437 444 Q483 476 483 533 Q483 583 440 612 Q397 640 317 640 Q259 640 214 618 Q168 596 134 555 L65 604 Q113 669 175 698 Q237 728 323 728 Q443 728 512 677 Q580 627 580 544 Q580 422 454 380 Q528 360 567 315 Q606 271 606 209 Q606 101 531 46 Q455 -10 316 -10 Q220 -10 154 27 Q89 63 49 135 Z" /><glyph glyph-name="uni418" unicode="&#x418;" d="M85 0 L85 718 L179 718 L179 146 L537 718 L652 718 L652 0 L558 0 L558 581 L193 0 L85 0 Z" /><glyph glyph-name="uni419" unicode="&#x419;" d="M85 718 L179 718 L179 146 L537 718 L652 718 L652 0 L558 0 L558 581 L193 0 L85 0 L85 718 ZM198 865 L266 865 Q271 823 294.5 806 Q318 789 357 789 Q397 789 422 810 Q443 830 449 865 L515 865 Q509 800 464.5 765 Q420 730 357 730 Q292 730 247.5 763.5 Q203 797 198 865 Z" /><glyph glyph-name="uni41A" unicode="&#x41a;" d="M85 718 L180 718 L180 382 L183 382 L487 718 L608 718 L283 370 L625 0 L504 0 L183 356 L180 356 L180 0 L85 0 L85 718 Z" /><glyph glyph-name="uni41B" unicode="&#x41b;" d="M99 -10 L20 36 Q120 144 152 257 Q170 315 176 377 Q183 440 183 508 L183 718 L596 718 L596 0 L503 0 L503 630 L275 630 L275 505 Q275 377 249 266 Q231 191 194 122 Q158 55 99 -10 Z" /><glyph glyph-name="uni41C" unicode="&#x41c;" d="M85 718 L178 718 L435 340 L691 718 L785 718 L785 0 L691 0 L691 551 L439 191 L431 191 L178 551 L178 0 L85 0 L85 718 Z" /><glyph glyph-name="uni41D" unicode="&#x41d;" d="M178 718 L178 409 L558 409 L558 718 L652 718 L652 0 L558 0 L558 320 L178 320 L178 0 L85 0 L85 718 L178 718 Z" /><glyph glyph-name="uni41E" unicode="&#x41e;" d="M433 -10 Q271 -9 170 94 Q68 199 67 355 Q68 516 170 621 Q271 727 433 728 Q591 727 694 621 Q798 515 799 355 Q795 199 695 96 Q595 -6 433 -10 ZM433 83 Q550 84 625 160 Q700 237 701 355 Q700 478 625 555 Q550 633 433 634 Q317 633 241 555 Q166 478 165 355 Q166 237 242 160 Q317 84 433 83 Z" /><glyph glyph-name="uni41F" unicode="&#x41f;" d="M85 718 L652 718 L652 0 L558 0 L558 629 L178 629 L178 0 L85 0 L85 718 Z" /><glyph glyph-name="uni420" unicode="&#x420;" d="M359 718 Q412 718 458.5 704.5 Q505 691 539.5 663 Q574 635 594 593 Q614 551 614 494 Q614 432 592.5 387.5 Q571 343 534 314.5 Q497 286 447 272.5 Q397 259 340 258 L180 258 L180 0 L85 0 L85 718 L359 718 ZM180 629 L180 346 L333 346 Q369 346 402 354 Q435 362 460 379.5 Q485 397 500 425.5 Q515 454 515 494 Q515 532 498.5 558 Q482 584 455.5 599.5 Q429 615 396.5 622 Q364 629 332 629 L180 629 Z" /><glyph glyph-name="uni421" unicode="&#x421;" d="M689 76 Q639 35 576 13 Q513 -10 441 -10 Q273 -6 171 98 Q70 202 67 359 Q70 515 172 619 Q274 723 439 728 Q588 727 690 636 L631 552 Q555 626 436 628 Q325 627 247 551 Q170 475 168 359 Q170 241 247 166 Q325 90 438 90 Q552 90 631 158 L689 76 Z" /><glyph glyph-name="uni422" unicode="&#x422;" d="M34 718 L605 718 L605 629 L367 629 L367 0 L272 0 L272 629 L34 629 L34 718 Z" /><glyph glyph-name="uni423" unicode="&#x423;" d="M138 718 L303 328 L453 718 L556 718 L301 76 Q291 51 273.5 34 Q256 17 234.5 7 Q213 -3 188 -7 Q163 -11 138 -11 Q97 -11 65 -3 L76 69 Q106 63 137 63 Q172 65 191.5 79.5 Q211 94 225 126 L257 209 L36 718 L138 718 Z" /><glyph glyph-name="uni424" unicode="&#x424;" d="M67 360 Q68 433 94 489 Q120 545 164 584 Q208 623 267.5 645 Q327 667 395 672 L395 718 L490 718 L490 672 Q559 666 618.5 644.5 Q678 623 721.5 584 Q765 545 791 489.5 Q817 434 819 360 Q818 287 792 231 Q766 175 722 136 Q678 97 618 74.5 Q558 52 490 47 L490 0 L395 0 L395 47 Q327 52 267.5 74.5 Q208 97 164 136 Q120 175 94 231 Q68 287 67 360 ZM490 131 Q541 136 584.5 151.5 Q628 167 659.5 195 Q691 223 708.5 264 Q726 305 727 360 Q726 415 708 456 Q690 497 658.5 525 Q627 553 584 569 Q541 585 490 590 L490 131 ZM158 360 Q159 305 176.5 264 Q194 223 225.5 195 Q257 167 300.5 151.5 Q344 136 395 131 L395 590 Q344 584 301 568.5 Q258 553 226.5 525 Q195 497 177 456.5 Q159 416 158 360 Z" /><glyph glyph-name="uni425" unicode="&#x425;" d="M301 386 L65 718 L175 718 L361 457 L550 718 L658 718 L413 383 L687 0 L577 0 L357 308 L137 0 L28 0 L301 386 Z" /><glyph glyph-name="uni426" unicode="&#x426;" d="M179 718 L179 88 L517 88 L517 718 L612 718 L612 88 L720 88 L705 -154 L625 -154 L625 0 L85 0 L85 718 L179 718 Z" /><glyph glyph-name="uni427" unicode="&#x427;" d="M67 718 L162 718 L162 486 Q162 414 198.5 382.5 Q235 351 304 351 Q395 354 486 398 L486 718 L580 718 L580 0 L486 0 L486 305 Q438 283 389 271.5 Q340 260 288 259 Q180 259 123.5 312.5 Q67 366 67 475 L67 718 Z" /><glyph glyph-name="uni428" unicode="&#x428;" d="M181 718 L181 88 L443 88 L443 718 L537 718 L537 88 L801 88 L801 718 L896 718 L896 0 L85 0 L85 718 L181 718 Z" /><glyph glyph-name="uni429" unicode="&#x429;" d="M85 718 L181 718 L181 93 L443 93 L443 718 L537 718 L537 93 L801 93 L801 718 L896 718 L896 93 L1004 93 L989 -154 L909 -154 L909 0 L85 0 L85 718 Z" /><glyph glyph-name="uni42A" unicode="&#x42a;" d="M8 718 L280 718 L280 421 L427 421 Q475 421 516.5 408 Q558 395 588 369.5 Q618 344 635 305.5 Q652 267 652 216 Q652 165 635.5 124.5 Q619 84 589.5 56.5 Q560 29 518.5 14.5 Q477 0 427 0 L185 0 L185 630 L8 630 L8 718 ZM417 88 Q479 88 517 116 Q555 144 555 210 Q555 278 516.5 306 Q478 334 414 334 L280 334 L280 88 L417 88 Z" /><glyph glyph-name="uni42B" unicode="&#x42b;" d="M180 718 L180 421 L327 421 Q375 421 416.5 408 Q458 395 488 369.5 Q518 344 535 305.5 Q552 267 552 216 Q552 165 535.5 124.5 Q519 84 489.5 56.5 Q460 29 418.5 14.5 Q377 0 327 0 L85 0 L85 718 L180 718 ZM747 718 L747 0 L652 0 L652 718 L747 718 ZM180 88 L317 88 Q379 88 417 116 Q455 144 455 210 Q455 278 416.5 306 Q378 334 314 334 L180 334 L180 88 Z" /><glyph glyph-name="uni42C" unicode="&#x42c;" d="M85 0 L85 718 L180 718 L180 421 L327 421 Q375 421 416.5 408 Q458 395 488 369.5 Q518 344 535 305.5 Q552 267 552 216 Q552 165 535.5 124.5 Q519 84 489.5 56.5 Q460 29 418.5 14.5 Q377 0 327 0 L85 0 ZM180 88 L317 88 Q379 88 417 116 Q455 144 455 210 Q455 278 416.5 306 Q378 334 314 334 L180 334 L180 88 Z" /><glyph glyph-name="uni42D" unicode="&#x42d;" d="M293 728 Q373 726 440.5 698 Q508 670 557.5 621.5 Q607 573 635.5 506.5 Q664 440 665 359 Q664 277 635.5 210 Q607 143 557.5 95 Q508 47 440 19.5 Q372 -8 291 -10 Q224 -10 159.5 11.5 Q95 33 43 76 L101 158 Q181 90 294 90 Q345 90 390.5 106.5 Q436 123 471.5 153 Q507 183 530.5 225 Q554 267 561 318 L117 318 L117 407 L560 407 Q552 456 528.5 496.5 Q505 537 469.5 566 Q434 595 389.5 611 Q345 627 296 628 Q179 627 101 552 L42 636 Q144 726 293 728 Z" /><glyph glyph-name="uni42E" unicode="&#x42e;" d="M85 718 L178 718 L178 416 L296 416 Q305 486 333 543.5 Q361 601 405.5 641.5 Q450 682 509.5 704.5 Q569 727 641 728 Q723 726 787.5 697.5 Q852 669 896.5 619.5 Q941 570 965 503 Q989 436 990 356 Q989 278 964.5 211.5 Q940 145 895 96 Q850 47 785.5 19 Q721 -9 641 -10 Q564 -8 502 17 Q440 42 395.5 85.5 Q351 129 325 190.5 Q299 252 294 328 L178 328 L178 0 L85 0 L85 718 ZM390 356 Q390 299 407 249.5 Q424 200 456 163 Q488 126 534.5 105 Q581 84 641 84 Q701 84 747.5 105 Q794 126 826.5 162.5 Q859 199 875.5 249 Q892 299 892 356 Q891 415 875 465 Q859 515 827.5 552.5 Q796 590 749.5 611.5 Q703 633 641 634 Q580 633 533 611.5 Q486 590 454.5 552.5 Q423 515 407 464.5 Q391 414 390 356 Z" /><glyph glyph-name="uni42F" unicode="&#x42f;" d="M228 307 Q149 327 102 378 Q55 429 55 513 Q55 571 77.5 610 Q100 649 137 673 Q174 697 221.5 707.5 Q269 718 319 718 L576 718 L576 0 L481 0 L481 294 L327 294 L148 0 L41 0 L228 307 ZM153 514 Q153 475 167 449.5 Q181 424 205 409 Q229 394 260.5 388 Q292 382 326 382 L481 382 L481 629 L325 629 Q297 629 266.5 624 Q236 619 211 606 Q186 593 169.5 571 Q153 549 153 514 Z" /><glyph glyph-name="uni430" unicode="&#x430;" d="M60 160 Q60 205 82.5 236.5 Q105 268 139 288.5 Q173 309 214.5 318 Q256 327 293 327 Q354 326 405 307 L405 331 Q405 387 374 417.5 Q343 448 287 448 Q200 448 104 408 L78 490 Q186 537 285 537 Q388 537 441.5 480.5 Q495 424 495 322 L495 0 L414 0 L407 54 Q346 -9 256 -9 Q216 -9 180.5 1 Q145 11 118 32 Q91 53 75.5 85 Q60 117 60 160 ZM153 161 Q153 137 163.5 120 Q174 103 190.5 92.5 Q207 82 228 77 Q249 72 270 72 Q311 74 343.5 86.5 Q376 99 405 129 L405 236 Q368 251 305 253 Q283 253 257.5 248.5 Q232 244 209.5 233.5 Q187 223 171 205.5 Q155 188 153 161 Z" /><glyph glyph-name="uni431" unicode="&#x431;" d="M54 304 Q54 595 192 696 Q237 743 306 758 Q422 782 472 805 L504 737 Q458 710 321 682 Q244 663 200 600 Q156 537 147 427 Q175 483 226 511 Q277 538 340 538 Q436 539 505 481 Q541 449 562 397 Q583 345 583 271 Q583 140 509 65 Q435 -9 316 -9 Q194 -9 124 75 Q54 159 54 304 ZM147 277 Q147 186 190 130 Q233 75 318 74 Q406 74 448 128 Q491 182 491 268 Q489 368 443 411 Q419 436 386 446 Q354 457 317 457 Q245 457 196 405 Q147 354 147 277 Z" /><glyph glyph-name="uni432" unicode="&#x432;" d="M271 528 Q306 528 340.5 523.5 Q375 519 402 505 Q429 491 446 465 Q463 439 463 396 Q464 352 440 318 Q419 290 377 278 Q480 255 480 153 Q480 108 464.5 78.5 Q449 49 422.5 31.5 Q396 14 360.5 7 Q325 0 286 0 L74 0 L74 528 L271 528 ZM160 240 L160 69 L269 69 Q293 69 314.5 72.5 Q336 76 353 85.5 Q370 95 380 112 Q390 129 390 157 Q390 240 262 240 L160 240 ZM160 307 L256 307 Q277 307 297.5 309.5 Q318 312 335 320.5 Q352 329 362.5 344 Q373 359 374 384 Q374 410 363.5 425 Q353 440 336 447.5 Q319 455 298 457.5 Q277 460 256 460 L160 460 L160 307 Z" /><glyph glyph-name="uni433" unicode="&#x433;" d="M74 528 L413 528 L413 448 L161 448 L161 0 L74 0 L74 528 Z" /><glyph glyph-name="uni434" unicode="&#x434;" d="M81 80 Q108 124 126.5 162 Q145 200 155.5 238.5 Q166 277 170.5 319.5 Q175 362 175 413 L175 528 L516 528 L516 80 L581 80 L570 -118 L493 -118 L493 0 L119 0 L119 -118 L42 -118 L31 80 L81 80 ZM182 80 L428 80 L428 448 L262 448 L262 407 Q262 320 244 237.5 Q226 155 182 80 Z" /><glyph glyph-name="uni435" unicode="&#x435;" d="M149 234 Q153 160 198 117 Q243 75 321 75 Q382 75 420 95 Q458 116 488 160 L554 110 Q517 49 457 19 Q397 -10 323 -10 Q193 -10 124 66 Q54 143 54 264 Q54 384 126 461 Q197 537 308 537 Q423 537 490 466 Q557 395 557 285 Q555 259 553 234 L149 234 ZM308 448 Q245 448 205 409 Q164 371 155 314 L456 314 Q453 372 414 410 Q375 448 308 448 Z" /><glyph glyph-name="uni436" unicode="&#x436;" d="M304 281 L59 528 L172 528 L389 306 L389 528 L477 528 L477 306 L694 528 L807 528 L563 281 L832 0 L718 0 L477 256 L477 0 L389 0 L389 256 L148 0 L34 0 L304 281 Z" /><glyph glyph-name="uni437" unicode="&#x437;" d="M121 391 L49 428 Q90 488 140 512 Q190 537 261 537 Q355 537 407 499 Q459 461 459 397 Q459 355 439 324 Q419 291 371 278 Q423 265 451 232 Q479 200 479 150 Q479 71 421 30 Q363 -10 254 -10 Q174 -10 123 18 Q72 46 34 106 L105 150 Q154 67 254 67 Q317 67 352 91 Q388 115 388 156 Q388 197 357 219 Q325 241 261 241 L206 241 L206 308 L260 308 Q316 307 345 325 Q373 344 373 383 Q373 416 344 438 Q315 460 256 460 Q211 460 178 443 Q143 426 121 391 Z" /><glyph glyph-name="uni438" unicode="&#x438;" d="M74 0 L74 528 L161 528 L161 135 L411 528 L509 528 L509 0 L421 0 L421 396 L169 0 L74 0 Z" /><glyph glyph-name="uni439" unicode="&#x439;" d="M74 0 L74 528 L161 528 L161 135 L411 528 L509 528 L509 0 L421 0 L421 396 L169 0 L74 0 ZM195 718 Q198 679 222 657.5 Q246 636 285 636 Q323 636 347 658 Q371 680 376 718 L443 718 Q438 650 394.5 612.5 Q351 575 285 575 Q216 575 173.5 611.5 Q131 648 126 718 L195 718 Z" /><glyph glyph-name="uni43A" unicode="&#x43a;" d="M164 528 L164 294 L375 528 L487 528 L259 284 L512 0 L401 0 L164 274 L164 0 L74 0 L74 528 L164 528 Z" /><glyph glyph-name="uni43B" unicode="&#x43b;" d="M101 -10 L24 29 Q89 113 112 191 Q134 269 134 373 L134 528 L505 528 L505 0 L417 0 L417 448 L220 448 L220 371 Q220 258 194 168 Q169 78 101 -10 Z" /><glyph glyph-name="uni43C" unicode="&#x43c;" d="M74 528 L158 528 L348 247 L538 528 L622 528 L622 0 L535 0 L535 384 L362 129 L333 129 L162 384 L162 0 L74 0 L74 528 Z" /><glyph glyph-name="uni43D" unicode="&#x43d;" d="M74 0 L74 528 L162 528 L162 312 L423 312 L423 528 L512 528 L512 0 L423 0 L423 233 L162 233 L162 0 L74 0 Z" /><glyph glyph-name="uni43E" unicode="&#x43e;" d="M326 -10 Q210 -10 132 67 Q54 144 54 263 Q54 384 132 460 Q209 537 326 537 Q447 537 524 459 Q599 382 599 263 Q599 144 522 67 Q445 -10 326 -10 ZM326 79 Q408 79 457 129 Q506 179 506 262 Q506 348 457 398 Q408 448 326 448 Q244 448 196 398 Q148 348 148 263 Q148 179 196 129 Q244 79 326 79 Z" /><glyph glyph-name="uni43F" unicode="&#x43f;" d="M74 528 L512 528 L512 0 L424 0 L424 448 L162 448 L162 0 L74 0 L74 528 Z" /><glyph glyph-name="uni440" unicode="&#x440;" d="M155 528 L163 468 Q198 503 242 519.5 Q286 536 334 536 Q389 536 432 513 Q475 490 504 452.5 Q533 415 548.5 367 Q564 319 564 268 Q564 213 547.5 163 Q531 113 499.5 75.5 Q468 38 422.5 16 Q377 -6 318 -6 Q276 -6 235.5 8.5 Q195 23 164 51 L164 -200 L74 -200 L74 528 L155 528 ZM164 140 Q192 111 230.5 96 Q269 81 310 81 Q349 81 379 96.5 Q409 112 429.5 138.5 Q450 165 460 198.5 Q470 232 470 268 Q470 301 459.5 333.5 Q449 366 429 391.5 Q409 417 380 433 Q351 449 315 449 Q273 448 232.5 432 Q192 416 164 384 L164 140 Z" /><glyph glyph-name="uni441" unicode="&#x441;" d="M513 62 Q479 27 430 8 Q381 -10 328 -10 Q208 -10 132 67 Q54 145 54 259 Q55 380 133 458 Q210 537 329 537 Q384 537 434 519 Q483 500 518 464 L467 398 Q407 447 335 448 Q257 448 204 395 Q150 343 150 259 Q150 180 202 129 Q255 77 333 77 Q420 79 467 128 L513 62 Z" /><glyph glyph-name="uni442" unicode="&#x442;" d="M27 528 L488 528 L488 448 L302 448 L302 0 L213 0 L213 448 L27 448 L27 528 Z" /><glyph glyph-name="uni443" unicode="&#x443;" d="M139 528 L300 146 L448 528 L546 528 L293 -110 Q273 -155 232.5 -176.5 Q192 -198 144 -198 Q91 -198 61 -189 L73 -117 Q99 -123 123 -123 Q161 -123 184 -108.5 Q207 -94 221 -59 L254 27 L41 528 L139 528 Z" /><glyph glyph-name="uni444" unicode="&#x444;" d="M54 256 Q54 305 66 355 Q78 405 104 445 Q130 485 170.5 510.5 Q211 536 268 536 Q337 536 396 465 L396 778 L485 778 L485 464 Q547 536 615 536 Q672 535 712 510 Q752 485 777.5 445 Q803 405 814.5 355.5 Q826 306 827 256 Q827 206 814.5 158 Q802 110 776 72.5 Q750 35 709 12.5 Q668 -10 612 -10 Q536 -6 485 51 L485 -210 L396 -210 L396 48 Q344 -6 268 -10 Q213 -10 172.5 13 Q132 36 105.5 73.5 Q79 111 66.5 159 Q54 207 54 256 ZM485 132 Q508 101 537 82 Q566 63 606 63 Q646 63 672 81 Q698 99 713 126.5 Q728 154 734 188.5 Q740 223 740 256 Q740 290 734.5 326.5 Q729 363 714.5 393.5 Q700 424 674 444 Q648 464 606 465 Q563 463 535 438 Q507 413 485 379 L485 132 ZM143 256 Q143 224 148.5 190 Q154 156 169 127.5 Q184 99 209.5 81 Q235 63 274 63 Q306 63 331 76 Q366 92 396 132 L396 378 Q375 413 346.5 438 Q318 463 274 465 Q234 464 208 443.5 Q182 423 168 392 Q154 361 148.5 324.5 Q143 288 143 256 Z" /><glyph glyph-name="uni445" unicode="&#x445;" d="M237 276 L53 528 L155 528 L293 338 L430 528 L531 528 L341 272 L541 0 L439 0 L287 206 L135 0 L34 0 L237 276 Z" /><glyph glyph-name="uni446" unicode="&#x446;" d="M74 0 L74 528 L162 528 L162 80 L416 80 L416 528 L505 528 L505 80 L575 80 L555 -112 L482 -112 L482 0 L74 0 Z" /><glyph glyph-name="uni447" unicode="&#x447;" d="M46 324 L46 528 L136 528 L136 337 Q136 287 158 265 Q181 239 240 238 Q312 240 372 276 L372 528 L463 528 L463 0 L372 0 L372 196 Q300 157 216 155 Q130 157 88 197 Q46 237 46 324 Z" /><glyph glyph-name="uni448" unicode="&#x448;" d="M74 0 L74 528 L161 528 L161 80 L355 80 L355 528 L443 528 L443 80 L637 80 L637 528 L726 528 L726 0 L74 0 Z" /><glyph glyph-name="uni449" unicode="&#x449;" d="M74 0 L74 528 L161 528 L161 80 L354 80 L354 528 L443 528 L443 80 L637 80 L637 528 L725 528 L725 80 L794 80 L775 -118 L702 -118 L702 0 L74 0 Z" /><glyph glyph-name="uni44A" unicode="&#x44a;" d="M210 528 L210 334 L301 334 Q414 332 460 285 Q506 239 504 166 Q504 118 488.5 86 Q473 54 445.5 35 Q418 16 380.5 8 Q343 0 300 0 L120 0 L120 452 L8 452 L8 528 L210 528 ZM210 80 L283 80 Q307 80 330.5 82 Q354 84 372.5 93 Q391 102 402.5 119.5 Q414 137 414 167 Q414 197 402.5 214.5 Q391 232 372 241 Q353 250 329.5 252.5 Q306 255 282 255 L210 255 L210 80 Z" /><glyph glyph-name="uni44B" unicode="&#x44b;" d="M74 0 L74 528 L165 528 L165 334 L256 334 Q369 332 415 285 Q460 238 459 166 Q459 118 443 86.5 Q427 55 399.5 35.5 Q372 16 335 8 Q298 0 255 0 L74 0 ZM542 0 L542 528 L632 528 L632 0 L542 0 ZM165 80 L237 80 Q261 80 285 82 Q309 84 327.5 93 Q346 102 357.5 119.5 Q369 137 369 167 Q369 197 357.5 214.5 Q346 232 327 241 Q308 250 284.5 252.5 Q261 255 237 255 L165 255 L165 80 Z" /><glyph glyph-name="uni44C" unicode="&#x44c;" d="M74 0 L74 528 L164 528 L164 334 L255 334 Q368 332 414 285 Q460 239 458 166 Q458 118 442.5 86 Q427 54 399.5 35 Q372 16 334.5 8 Q297 0 254 0 L74 0 ZM164 80 L237 80 Q261 80 284.5 82 Q308 84 326.5 93 Q345 102 356.5 119.5 Q368 137 368 167 Q368 197 356.5 214.5 Q345 232 326 241 Q307 250 283.5 252.5 Q260 255 236 255 L164 255 L164 80 Z" /><glyph glyph-name="uni44D" unicode="&#x44d;" d="M45 463 Q85 502 131.5 519.5 Q178 537 234 537 Q295 537 345 516 Q395 495 431.5 458 Q468 421 488 370 Q508 319 509 259 Q509 200 488 150.5 Q467 101 430.5 65.5 Q394 30 344 10 Q294 -10 235 -10 Q184 -10 135.5 7.5 Q87 25 50 62 L96 128 Q142 79 230 77 Q265 77 296.5 88.5 Q328 100 352 120.5 Q376 141 392 170 Q408 199 412 234 L116 234 L116 309 L408 309 Q393 374 343 411 Q293 448 227 448 Q153 446 96 398 L45 463 Z" /><glyph glyph-name="uni44E" unicode="&#x44e;" d="M74 528 L163 528 L163 313 L257 313 Q263 363 282 404 Q301 445 332 474.5 Q363 504 405 520.5 Q447 537 499 537 Q561 537 607.5 515 Q654 493 685 455 Q716 417 731.5 366 Q747 315 747 257 Q747 200 730.5 151 Q714 102 682.5 66 Q651 30 605 10 Q559 -10 499 -10 Q444 -10 400.5 8 Q357 26 325.5 58 Q294 90 275.5 134.5 Q257 179 254 232 L163 232 L163 0 L74 0 L74 528 ZM344 260 Q344 224 353.5 190.5 Q363 157 382 131.5 Q401 106 430 91 Q459 76 499 76 Q540 76 570 90.5 Q600 105 619 130 Q638 155 647 188.5 Q656 222 656 260 Q656 297 647 331.5 Q638 366 619 393 Q600 420 570 436 Q540 452 499 452 Q458 452 428.5 436 Q399 420 380.5 393 Q362 366 353 331.5 Q344 297 344 260 Z" /><glyph glyph-name="uni44F" unicode="&#x44f;" d="M185 215 Q119 226 88.5 264.5 Q58 303 58 369 Q58 414 73.5 444.5 Q89 475 115.5 493.5 Q142 512 177.5 520 Q213 528 253 528 L454 528 L454 0 L366 0 L366 205 L281 205 Q245 153 208.5 102 Q172 51 135 0 L31 0 L185 215 ZM152 367 Q152 326 174 307 Q191 290 215 284 Q237 277 271 277 L366 277 L366 455 L269 455 Q249 455 229.5 452 Q210 449 191 439 Q168 429 160 409.5 Q152 390 152 367 Z" /><glyph glyph-name="uni451" unicode="&#x451;" d="M54 264 Q54 321 71.5 370.5 Q89 420 122 457 Q155 494 202 515.5 Q249 537 308 537 Q365 537 411 518.5 Q457 500 489.5 467 Q522 434 539.5 387.5 Q557 341 557 285 Q556 272 555 259.5 Q554 247 553 234 L149 234 Q154 156 199 115.5 Q244 75 321 75 Q378 75 416.5 93.5 Q455 112 488 160 L554 110 Q516 47 456 18.5 Q396 -10 323 -10 Q260 -10 210 9.5 Q160 29 125.5 64.5 Q91 100 72.5 150.5 Q54 201 54 264 ZM155 314 L456 314 Q453 377 411.5 412.5 Q370 448 308 448 Q278 448 252 438 Q226 428 206 410 Q186 392 173 367.5 Q160 343 155 314 ZM247 672 L247 598 L162 598 L162 672 L247 672 ZM449 672 L449 598 L365 598 L365 672 L449 672 Z" /><glyph glyph-name="uniE3F" unicode="&#xe3f;" d="M270 675 L261 675 Q210 675 165 666 L165 425 L231 425 Q259 425 270 426 L270 675 ZM333 670 L333 434 Q449 459 449 553 Q449 651 333 670 ZM270 360 Q258 361 231 361 L165 361 L165 64 Q214 56 270 55 L270 360 ZM333 354 L333 59 Q479 80 479 217 Q479 274 444.5 308 Q410 342 333 354 ZM270 740 L270 815 L333 815 L333 736 Q525 714 525 563 Q525 503 484.5 458 Q444 413 374 398 L374 396 Q462 384 510 334.5 Q558 285 558 210 Q558 16 333 -7 L333 -85 L270 -85 L270 -10 Q176 -10 85 6 L85 724 Q173 739 261 740 L270 740 Z" /><glyph glyph-name="uni2010" unicode="&#x2010;" d="M85 384 L538 384 L538 293 L85 293 L85 384 Z" /><glyph glyph-name="emdash" unicode="&#x2014;" d="M-5 306 L-5 395 L1005 395 L1005 306 L-5 306 Z" /><glyph glyph-name="uni2015" unicode="&#x2015;" d="M50 306 L50 395 L950 395 L950 306 L50 306 Z" /><glyph glyph-name="uni2016" unicode="&#x2016;" d="M557 810 L648 810 L648 -109 L557 -109 L557 810 ZM351 810 L442 810 L442 -109 L351 -109 L351 810 Z" /><glyph glyph-name="quoteleft" unicode="&#x2018;" d="M571 783 Q540 769 527 743 Q514 716 517 677 L561 677 L561 586 L454 586 L454 664 Q454 722 479 761 Q504 800 554 815 L571 783 Z" /><glyph glyph-name="quoteright" unicode="&#x2019;" d="M180 599 Q210 613 224 640 Q237 665 234 705 L190 705 L190 796 L297 796 L297 718 Q297 660 273 620 Q247 582 197 567 L180 599 Z" /><glyph glyph-name="quotedblleft" unicode="&#x201c;" d="M362 586 L362 664 Q362 718 384.5 758 Q407 798 461 815 L478 783 Q448 770 434 743 Q421 717 424 677 L467 677 L467 586 L362 586 ZM528 677 Q531 728 553.5 764 Q576 800 627 815 L644 783 Q614 770 600 743 Q587 718 589 677 L632 677 L632 586 L528 586 L528 677 Z" /><glyph glyph-name="quotedblright" unicode="&#x201d;" d="M316 640 Q330 666 327 705 L284 705 L284 796 L388 796 L388 718 Q388 664 366 624 Q344 584 289 567 L272 599 Q302 612 316 640 ZM150 640 Q164 666 161 705 L118 705 L118 796 L222 796 L222 705 Q219 654 197 618 Q175 582 124 567 L107 599 Q136 612 150 640 Z" /><glyph glyph-name="bullet" unicode="&#x2022;" d="M191 395 L191 297 L87 297 L87 395 L191 395 Z" /><glyph glyph-name="uni2032" unicode="&#x2032;" d="M320 720 L244 510 L188 510 L234 720 L320 720 Z" /><glyph glyph-name="uni2033" unicode="&#x2033;" d="M260 510 L307 720 L393 720 L316 510 L260 510 ZM115 510 L162 720 L248 720 L171 510 L115 510 Z" /><glyph glyph-name="guilsinglleft" unicode="&#x2039;" d="M203 74 L50 248 L50 316 L203 490 L242 456 L110 282 L242 105 L203 74 Z" /><glyph glyph-name="guilsinglright" unicode="&#x203a;" d="M99 74 L60 105 L192 282 L60 456 L99 490 L252 316 L252 248 L99 74 Z" /><glyph glyph-name="uniFFE3" unicode="&#x203e;&#xffe3;" d="M1000 718 L0 718 L0 798 L1000 798 L1000 718 Z" /><glyph glyph-name="uniE76C" unicode="&#x20ac;&#xe76c;" d="M106 479 Q125 538 159.5 583.5 Q194 629 240.5 660.5 Q287 692 342.5 709.5 Q398 727 458 728 Q608 726 710 636 L650 552 Q572 627 455 628 Q417 628 380.5 617.5 Q344 607 312.5 588 Q281 569 256 541.5 Q231 514 215 479 L472 479 L472 406 L192 406 Q190 395 189 383 Q188 371 188 359 Q188 347 189 335 Q190 323 192 312 L472 312 L472 239 L214 239 Q248 169 313.5 129.5 Q379 90 457 90 Q571 90 650 158 L708 76 Q655 33 591.5 11.5 Q528 -10 460 -10 Q399 -9 343 8 Q287 25 240.5 56.5 Q194 88 159 134 Q124 180 105 239 L32 239 L32 312 L89 312 Q86 335 86 359 Q86 371 87 383 Q88 395 90 406 L32 406 L32 479 L106 479 Z" /><glyph glyph-name="uni2103" unicode="&#x2103;" d="M203 398 Q131 398 85 445 Q38 493 38 562 Q38 632 85 679 Q131 727 203 727 Q274 727 321 679 Q368 632 368 562 Q368 493 321 445 Q274 398 203 398 ZM203 461 Q244 461 272 490 Q301 519 301 561 Q301 605 272 633 Q244 662 203 662 Q161 662 133 633 Q105 605 105 562 Q105 519 134 490 Q162 461 203 461 ZM1003 76 Q954 35 891 13 Q827 -10 755 -10 Q588 -6 486 98 Q384 202 381 359 Q384 515 486 619 Q588 723 753 728 Q902 727 1004 636 L945 552 Q869 626 750 628 Q639 627 561 551 Q484 475 483 359 Q484 241 561 166 Q639 90 752 90 Q866 90 945 158 L1003 76 Z" /><glyph glyph-name="uni2109" unicode="&#x2109;" d="M901 715 L901 627 L511 627 L511 399 L876 399 L876 311 L511 311 L511 0 L416 0 L416 715 L901 715 ZM38 551 Q38 586 50.5 616.5 Q63 647 85 669 Q107 691 137.5 703.5 Q168 716 203 716 Q238 716 268.5 703.5 Q299 691 321 669 Q343 647 355.5 616.5 Q368 586 368 551 Q368 516 355.5 486 Q343 456 321 434 Q299 412 268.5 399.5 Q238 387 203 387 Q168 387 137.5 399.5 Q107 412 85 434 Q63 456 50.5 486 Q38 516 38 551 ZM108 551 Q108 510 135 482 Q162 454 203 454 Q223 454 240 461.5 Q257 469 270 482.5 Q283 496 290 513.5 Q297 531 297 550 Q297 590 271 619 Q245 648 203 648 Q163 648 136 620 Q108 593 108 551 Z" /><glyph glyph-name="uni2160" unicode="&#x2160;" d="M453 718 L547 718 L547 0 L453 0 L453 718 Z" /><glyph glyph-name="uni2161" unicode="&#x2161;" d="M595 718 L690 718 L690 0 L595 0 L595 718 ZM405 718 L405 0 L310 0 L310 718 L405 718 Z" /><glyph glyph-name="uni2162" unicode="&#x2162;" d="M754 718 L754 0 L659 0 L659 718 L754 718 ZM245 0 L245 718 L340 718 L340 0 L245 0 ZM453 718 L547 718 L547 0 L453 0 L453 718 Z" /><glyph glyph-name="uni2163" unicode="&#x2163;" d="M337 718 L574 122 L810 718 L917 718 L618 0 L529 0 L230 718 L337 718 ZM99 718 L194 718 L194 0 L99 0 L99 718 Z" /><glyph glyph-name="uni2164" unicode="&#x2164;" d="M152 718 L259 718 L501 122 L742 718 L849 718 L545 0 L456 0 L152 718 Z" /><glyph glyph-name="uni2165" unicode="&#x2165;" d="M196 718 L433 122 L669 718 L777 718 L478 0 L388 0 L89 718 L196 718 ZM804 0 L804 718 L899 718 L899 0 L804 0 Z" /><glyph glyph-name="uni2166" unicode="&#x2166;" d="M151 718 L330 123 L508 718 L615 718 L374 0 L285 0 L44 718 L151 718 ZM847 0 L847 718 L942 718 L942 0 L847 0 ZM647 718 L742 718 L742 0 L647 0 L647 718 Z" /><glyph glyph-name="uni2167" unicode="&#x2167;" d="M135 718 L294 123 L452 718 L645 718 L645 0 L550 0 L550 689 L338 0 L248 0 L27 718 L135 718 ZM861 0 L861 718 L956 718 L956 0 L861 0 ZM800 718 L800 0 L706 0 L706 718 L800 718 Z" /><glyph glyph-name="uni2168" unicode="&#x2168;" d="M250 0 L523 384 L284 718 L395 718 L583 455 L775 718 L883 718 L636 381 L909 0 L799 0 L580 305 L359 0 L250 0 ZM110 718 L205 718 L205 0 L110 0 L110 718 Z" /><glyph glyph-name="uni2169" unicode="&#x2169;" d="M444 384 L205 718 L315 718 L504 455 L695 718 L803 718 L556 381 L830 0 L719 0 L500 305 L279 0 L171 0 L444 384 Z" /><glyph glyph-name="uni2170" unicode="&#x2170;" d="M453 766 L547 766 L547 673 L453 673 L453 766 ZM455 528 L545 528 L545 0 L455 0 L455 528 Z" /><glyph glyph-name="uni2171" unicode="&#x2171;" d="M417 528 L417 0 L327 0 L327 528 L417 528 ZM674 528 L674 0 L584 0 L584 528 L674 528 ZM582 673 L582 766 L676 766 L676 673 L582 673 ZM325 673 L325 766 L419 766 L419 673 L325 673 Z" /><glyph glyph-name="uni2172" unicode="&#x2172;" d="M356 528 L356 0 L266 0 L266 528 L356 528 ZM455 528 L545 528 L545 0 L455 0 L455 528 ZM734 528 L734 0 L644 0 L644 528 L734 528 ZM547 766 L547 673 L453 673 L453 766 L547 766 ZM642 673 L642 766 L736 766 L736 673 L642 673 ZM264 766 L358 766 L358 673 L264 673 L264 766 Z" /><glyph glyph-name="uni2173" unicode="&#x2173;" d="M322 528 L420 528 L584 126 L750 528 L849 528 L619 0 L547 0 L322 528 ZM170 0 L170 528 L261 528 L261 0 L170 0 ZM169 673 L169 766 L262 766 L262 673 L169 673 Z" /><glyph glyph-name="uni2174" unicode="&#x2174;" d="M335 528 L498 126 L664 528 L763 528 L534 0 L462 0 L236 528 L335 528 Z" /><glyph glyph-name="uni2175" unicode="&#x2175;" d="M152 528 L251 528 L414 126 L581 528 L679 528 L450 0 L378 0 L152 528 ZM740 0 L740 528 L831 528 L831 0 L740 0 ZM832 766 L832 673 L739 673 L739 766 L832 766 Z" /><glyph glyph-name="uni2176" unicode="&#x2176;" d="M167 528 L330 126 L496 528 L595 528 L366 0 L294 0 L68 528 L167 528 ZM823 528 L914 528 L914 0 L823 0 L823 528 ZM628 0 L628 528 L718 528 L718 0 L628 0 ZM822 766 L915 766 L915 673 L822 673 L822 766 ZM720 766 L720 673 L627 673 L627 766 L720 766 Z" /><glyph glyph-name="uni2177" unicode="&#x2177;" d="M42 528 L141 528 L289 126 L440 528 L539 528 L325 0 L253 0 L42 528 ZM792 528 L792 0 L701 0 L701 528 L792 528 ZM556 0 L556 528 L646 528 L646 0 L556 0 ZM847 0 L847 528 L937 528 L937 0 L847 0 ZM554 766 L648 766 L648 673 L554 673 L554 766 ZM845 673 L845 766 L939 766 L939 673 L845 673 ZM793 766 L793 673 L700 673 L700 766 L793 766 Z" /><glyph glyph-name="uni2178" unicode="&#x2178;" d="M545 276 L361 528 L462 528 L601 338 L738 528 L839 528 L649 272 L849 0 L747 0 L595 206 L443 0 L342 0 L545 276 ZM176 0 L176 528 L266 528 L266 0 L176 0 ZM174 673 L174 766 L268 766 L268 673 L174 673 Z" /><glyph glyph-name="uni2179" unicode="&#x2179;" d="M450 276 L266 528 L367 528 L506 338 L643 528 L744 528 L554 272 L754 0 L652 0 L500 206 L348 0 L246 0 L450 276 Z" /><glyph glyph-name="fraction" unicode="&#x2215;" d="M260 -100 L640 800 L740 800 L360 -100 L260 -100 Z" /><glyph glyph-name="uni223D" unicode="&#x223d;" d="M767 253 L682 253 Q682 303 664 334 Q646 365 608 365 Q590 365 573 355 Q555 345 535 327 Q505 297 472 276 Q439 253 393 252 Q299 254 265 308 Q248 334 240 370 Q234 406 234 449 L318 449 Q318 336 389 336 Q414 336 435 349 Q455 362 484 387 Q512 413 542 430 Q571 448 610 449 Q689 449 728 395 Q767 341 767 253 Z" /><glyph glyph-name="approxequal" unicode="&#x2248;" d="M728 534 L777 477 Q712 388 613 386 Q583 386 555 396 Q526 405 494 421 Q467 432 439 442 Q412 451 384 452 Q331 450 273 380 L223 438 Q303 530 389 530 Q424 529 456 518 Q487 507 517 494 Q567 467 619 464 Q672 465 728 534 ZM728 320 L777 263 Q712 174 613 173 Q580 173 551 183 Q522 194 494 207 Q467 218 440 228 Q413 237 384 238 Q331 236 273 167 L223 225 Q303 316 389 316 Q424 315 456 304 Q487 293 517 280 Q567 254 619 251 Q672 252 728 320 Z" /><glyph glyph-name="uni224C" unicode="&#x224c;" d="M234 581 L318 581 Q318 468 389 468 Q414 468 436 482 Q459 497 486 521 Q500 534 514 544 Q528 554 543 562 Q571 579 610 581 Q654 581 683.5 565 Q713 549 732 522 Q751 495 759 459.5 Q767 424 767 385 L682 385 Q682 403 679 423 Q676 443 667.5 459.5 Q659 476 645 486.5 Q631 497 608 497 Q573 496 533 457 Q502 426 470.5 406 Q439 386 393 384 Q344 385 313 399.5 Q282 414 264.5 440 Q247 466 240.5 502 Q234 538 234 581 ZM766 305 L766 215 L234 215 L234 305 L766 305 ZM234 45 L234 135 L766 135 L766 45 L234 45 Z" /><glyph glyph-name="notequal" unicode="&#x2260;" d="M229 10 L352 192 L234 192 L234 282 L412 282 L504 418 L234 418 L234 508 L564 508 L680 680 L772 680 L656 508 L766 508 L766 418 L596 418 L504 282 L766 282 L766 192 L444 192 L321 10 L229 10 Z" /><glyph glyph-name="uni2261" unicode="&#x2261;" d="M234 135 L234 225 L766 225 L766 135 L234 135 ZM234 476 L234 566 L766 566 L766 476 L234 476 ZM234 396 L766 396 L766 306 L234 306 L234 396 Z" /><glyph glyph-name="lessequal" unicode="&#x2264;" d="M234 464 L766 692 L766 597 L362 436 L766 275 L766 177 L234 406 L234 464 ZM234 319 L766 91 L766 8 L234 233 L234 319 Z" /><glyph glyph-name="greaterequal" unicode="&#x2265;" d="M234 177 L234 275 L637 436 L234 597 L234 692 L766 464 L766 406 L234 177 ZM234 8 L234 91 L766 319 L766 233 L234 8 Z" /><glyph glyph-name="uni2460" unicode="&#x2460;" d="M33 350 Q38 556 171 684 Q303 814 500 818 Q707 814 835 686 Q964 558 968 350 Q964 137 834 12 Q705 -114 500 -117 Q299 -114 168 13 Q38 140 33 350 ZM75 350 Q79 161 197 45 Q313 -72 500 -75 Q689 -72 806 43 Q923 157 926 350 Q923 538 806 655 Q689 772 500 776 Q316 772 198 653 Q79 534 75 350 ZM504 673 L574 673 L574 27 L489 27 L489 574 L361 505 L361 598 L504 673 Z" /><glyph glyph-name="uni2461" unicode="&#x2461;" d="M33 350 Q38 556 171 684 Q303 814 500 818 Q707 814 835 686 Q964 558 968 350 Q964 137 834 12 Q705 -114 500 -117 Q299 -114 168 13 Q38 140 33 350 ZM75 350 Q79 161 197 45 Q313 -72 500 -75 Q689 -72 806 43 Q923 157 926 350 Q923 538 806 655 Q689 772 500 776 Q316 772 198 653 Q79 534 75 350 ZM421 108 L716 108 L716 26 L286 26 L286 87 L497 324 Q549 383 576 426 Q603 468 603 509 Q603 547 574 571 Q543 595 502 595 Q459 595 427 573 Q395 551 377 509 L283 524 Q303 599 361 639 Q421 681 499 681 Q590 681 644 634 Q698 587 698 516 Q698 466 672 420 Q647 375 573 289 L421 108 Z" /><glyph glyph-name="uni2462" unicode="&#x2462;" d="M33 350 Q38 556 171 684 Q303 814 500 818 Q707 814 835 686 Q964 558 968 350 Q964 137 834 12 Q705 -114 500 -117 Q299 -114 168 13 Q38 140 33 350 ZM75 350 Q79 161 197 45 Q313 -72 500 -75 Q689 -72 806 43 Q923 157 926 350 Q923 538 806 655 Q689 772 500 776 Q316 772 198 653 Q79 534 75 350 ZM596 372 Q651 357 687 316 Q722 276 722 212 Q722 127 664 73 Q605 19 502 19 Q428 19 368 54 Q308 91 277 150 L348 203 Q375 156 416 128 Q457 102 506 102 Q566 102 603 134 Q640 167 640 218 Q640 274 594 301 Q554 326 484 326 L450 326 L450 406 L481 406 Q546 406 578 434 Q610 461 610 509 Q610 548 579 572 Q549 597 505 597 Q466 597 437 577 Q407 557 393 519 L299 537 Q322 613 379 649 Q432 682 508 682 Q602 680 650 632 Q697 583 697 517 Q697 466 670 428 Q642 390 596 372 Z" /><glyph glyph-name="uni2463" unicode="&#x2463;" d="M33 350 Q35 451 70.5 536 Q106 621 168 683 Q230 745 314.5 780.5 Q399 816 500 818 Q604 816 689.5 781.5 Q775 747 836 686 Q897 625 931.5 539.5 Q966 454 968 350 Q966 245 932 159.5 Q898 74 837 13 Q776 -48 690.5 -82 Q605 -116 500 -117 Q397 -116 311.5 -81.5 Q226 -47 165 14.5 Q104 76 69.5 161.5 Q35 247 33 350 ZM75 350 Q77 256 108.5 178.5 Q140 101 195.5 45 Q251 -11 328.5 -42.5 Q406 -74 500 -75 Q596 -74 674 -43 Q752 -12 807.5 43.5 Q863 99 894 176.5 Q925 254 926 350 Q925 445 893.5 522.5 Q862 600 806 655.5 Q750 711 672.5 742.5 Q595 774 500 776 Q407 774 330 741.5 Q253 709 197 653 Q141 597 109 519.5 Q77 442 75 350 ZM554 672 L658 672 L658 234 L738 234 L738 153 L658 153 L658 26 L574 26 L574 153 L277 153 L261 234 L554 672 ZM574 234 L574 554 L359 234 L574 234 Z" /><glyph glyph-name="uni2464" unicode="&#x2464;" d="M33 350 Q38 556 171 684 Q303 814 500 818 Q707 814 835 686 Q964 558 968 350 Q964 137 834 12 Q705 -114 500 -117 Q299 -114 168 13 Q38 140 33 350 ZM75 350 Q79 161 197 45 Q313 -72 500 -75 Q689 -72 806 43 Q923 157 926 350 Q923 538 806 655 Q689 772 500 776 Q316 772 198 653 Q79 534 75 350 ZM282 134 L347 183 Q373 143 408 122 Q441 101 487 101 Q555 101 593 137 Q631 174 631 233 Q631 286 594 319 Q557 352 493 352 Q452 352 424 340 Q397 328 377 308 L307 346 L355 672 L680 672 L680 592 L432 592 L406 404 Q427 418 456 427 Q485 436 517 436 Q608 436 663 378 Q717 321 717 236 Q717 139 656 78 Q595 18 492 18 Q427 18 369 48 Q310 79 282 134 Z" /><glyph glyph-name="uni2465" unicode="&#x2465;" d="M33 350 Q38 556 171 684 Q303 814 500 818 Q707 814 835 686 Q964 558 968 350 Q964 137 834 12 Q705 -114 500 -117 Q299 -114 168 13 Q38 140 33 350 ZM75 350 Q79 161 197 45 Q313 -72 500 -75 Q689 -72 806 43 Q923 157 926 350 Q923 538 806 655 Q689 772 500 776 Q316 772 198 653 Q79 534 75 350 ZM280 332 Q281 452 327 531 Q367 599 433 638 Q531 692 651 682 L651 604 Q545 609 477 565 Q430 535 402 483 Q374 431 368 373 Q410 410 462 426 Q498 438 535 438 Q618 438 669 383 Q720 329 720 250 Q721 154 669 87 Q617 21 506 19 Q389 22 337 102 Q306 148 293 206 Q280 266 280 332 ZM370 285 Q375 192 415 145 Q447 105 504 105 Q565 105 601 143 Q635 181 635 247 Q635 298 603 327 Q570 357 517 357 Q434 353 370 285 Z" /><glyph glyph-name="uni2466" unicode="&#x2466;" d="M33 350 Q38 556 171 684 Q303 814 500 818 Q707 814 835 686 Q964 558 968 350 Q964 137 834 12 Q705 -114 500 -117 Q299 -114 168 13 Q38 140 33 350 ZM75 350 Q79 161 197 45 Q313 -72 500 -75 Q689 -72 806 43 Q923 157 926 350 Q923 538 806 655 Q689 772 500 776 Q316 772 198 653 Q79 534 75 350 ZM296 673 L703 673 L703 592 L474 27 L384 27 L612 592 L296 592 L296 673 Z" /><glyph glyph-name="uni2467" unicode="&#x2467;" d="M33 350 Q38 556 171 684 Q303 814 500 818 Q707 814 835 686 Q964 558 968 350 Q964 137 834 12 Q705 -114 500 -117 Q299 -114 168 13 Q38 140 33 350 ZM75 350 Q79 161 197 45 Q313 -72 500 -75 Q689 -72 806 43 Q923 157 926 350 Q923 538 806 655 Q689 772 500 776 Q316 772 198 653 Q79 534 75 350 ZM610 375 Q659 356 688 316 Q717 277 717 219 Q717 131 658 75 Q599 19 499 19 Q396 19 339 72 Q282 127 282 213 Q282 269 312 310 Q342 352 389 374 Q350 393 327 428 Q303 463 303 510 Q303 583 356 632 Q409 682 496 682 Q590 682 643 633 Q696 584 696 510 Q696 466 672 431 Q647 396 610 375 ZM496 606 Q447 606 419 579 Q389 552 389 510 Q389 463 417 437 Q445 410 496 410 Q552 410 581 435 Q610 461 610 504 Q610 550 580 578 Q550 606 496 606 ZM499 99 Q557 99 592 131 Q627 163 627 216 Q627 265 593 295 Q557 326 496 326 Q438 326 405 294 Q371 263 371 213 Q371 163 407 131 Q442 99 499 99 Z" /><glyph glyph-name="uni2468" unicode="&#x2468;" d="M33 350 Q38 556 171 684 Q303 814 500 818 Q707 814 835 686 Q964 558 968 350 Q964 137 834 12 Q705 -114 500 -117 Q299 -114 168 13 Q38 140 33 350 ZM75 350 Q79 161 197 45 Q313 -72 500 -75 Q689 -72 806 43 Q923 157 926 350 Q923 538 806 655 Q689 772 500 776 Q316 772 198 653 Q79 534 75 350 ZM278 477 Q279 564 337 622 Q396 682 495 682 Q591 681 645 628 Q707 570 718 451 Q722 419 722 385 Q722 286 696 213 Q671 140 624 93 Q580 50 513 33 Q448 17 356 19 L356 95 Q496 92 565 157 Q626 216 627 332 Q595 300 557 286 Q520 271 469 271 Q389 271 333 328 Q277 385 278 477 ZM365 477 Q365 419 397 385 Q428 352 482 352 Q526 352 563 366 Q598 382 627 415 Q632 473 603 535 Q588 564 561 582 Q534 601 494 601 Q439 601 402 566 Q366 531 365 477 Z" /><glyph glyph-name="uni2469" unicode="&#x2469;" d="M33 350 Q35 451 70.5 536 Q106 621 168 683 Q230 745 314.5 780.5 Q399 816 500 818 Q604 816 689.5 781.5 Q775 747 836 686 Q897 625 931.5 539.5 Q966 454 968 350 Q966 245 932 159.5 Q898 74 837 13 Q776 -48 690.5 -82 Q605 -116 500 -117 Q397 -116 311.5 -81.5 Q226 -47 165 14.5 Q104 76 69.5 161.5 Q35 247 33 350 ZM75 350 Q77 256 108.5 178.5 Q140 101 195.5 45 Q251 -11 328.5 -42.5 Q406 -74 500 -75 Q596 -74 674 -43 Q752 -12 807.5 43.5 Q863 99 894 176.5 Q925 254 926 350 Q925 445 893.5 522.5 Q862 600 806 655.5 Q750 711 672.5 742.5 Q595 774 500 776 Q403 774 317.5 736.5 Q232 699 171 623 L270 673 L340 673 L340 27 L254 27 L254 573 L163 527 L163 613 Q80 506 75 350 ZM391 355 Q391 412 400 470 Q409 528 434 575.5 Q459 623 502.5 652.5 Q546 682 616 682 Q683 682 726 651.5 Q769 621 794 573 Q819 525 829 467 Q839 409 839 355 Q839 300 830 240.5 Q821 181 796 131.5 Q771 82 728 50.5 Q685 19 616 19 Q545 19 501 50 Q457 81 432.5 129.5 Q408 178 399.5 237.5 Q391 297 391 355 ZM478 355 Q478 319 481 274.5 Q484 230 497.5 191 Q511 152 539 126 Q567 100 616 100 Q663 100 690.5 127 Q718 154 732 193 Q746 232 749.5 276 Q753 320 753 355 Q753 390 749 432.5 Q745 475 731 513 Q717 551 690 576.5 Q663 602 616 602 Q567 602 539.5 577 Q512 552 498.5 515 Q485 478 481.5 435 Q478 392 478 355 Z" /><glyph glyph-name="uni246A" unicode="&#x246a;" d="M500 -86 Q372 -86 266 -23 Q160 40 97 146 Q34 252 34 380 Q34 509 97 614.5 Q160 720 266 783 Q372 846 500 846 Q629 846 734.5 783 Q840 720 903 614.5 Q966 509 966 380 Q966 251 902.5 145 Q839 39 733.5 -23.5 Q628 -86 500 -86 ZM500 -54 Q620 -54 718.5 4.5 Q817 63 875.5 161.5 Q934 260 934 380 Q934 500 875.5 598.5 Q817 697 718.5 755.5 Q620 814 500 814 Q379 814 280.5 755 Q182 696 124 597.5 Q66 499 66 380 Q66 260 124.5 161.5 Q183 63 281.5 4.5 Q380 -54 500 -54 ZM338 127 L338 551 L253 551 L253 604 Q317 618 357 645 L416 645 L416 127 L338 127 ZM611 127 L611 551 L526 551 L526 604 Q590 618 629 645 L688 645 L688 127 L611 127 Z" /><glyph glyph-name="uni246B" unicode="&#x246b;" d="M500 -86 Q372 -86 266 -23 Q160 40 97 146 Q34 252 34 380 Q34 509 97 614.5 Q160 720 266 783 Q372 846 500 846 Q629 846 734.5 783 Q840 720 903 614.5 Q966 509 966 380 Q966 251 902.5 145 Q839 39 733.5 -23.5 Q628 -86 500 -86 ZM500 -54 Q620 -54 718.5 4.5 Q817 63 875.5 161.5 Q934 260 934 380 Q934 500 875.5 598.5 Q817 697 718.5 755.5 Q620 814 500 814 Q379 814 280.5 755 Q182 696 124 597.5 Q66 499 66 380 Q66 260 124.5 161.5 Q183 63 281.5 4.5 Q380 -54 500 -54 ZM292 127 L292 551 L207 551 L207 604 Q271 618 309 645 L369 645 L369 127 L292 127 ZM474 127 L474 175 Q569 284 622.5 359.5 Q676 435 676 496 Q676 540 657 565.5 Q638 591 600 591 Q574 591 552 575.5 Q530 560 513 537 L469 580 Q528 657 610 657 Q675 657 712.5 614.5 Q750 572 750 502 Q750 454 727 405 Q704 356 666 303.5 Q628 251 580 193 Q621 197 660 197 L768 197 L768 127 L474 127 Z" /><glyph glyph-name="uni246C" unicode="&#x246c;" d="M500 -86 Q372 -86 266 -23 Q160 40 97 146 Q34 252 34 380 Q34 509 97 614.5 Q160 720 266 783 Q372 846 500 846 Q629 846 734.5 783 Q840 720 903 614.5 Q966 509 966 380 Q966 251 902.5 145 Q839 39 733.5 -23.5 Q628 -86 500 -86 ZM500 -54 Q620 -54 718.5 4.5 Q817 63 875.5 161.5 Q934 260 934 380 Q934 500 875.5 598.5 Q817 697 718.5 755.5 Q620 814 500 814 Q379 814 280.5 755 Q182 696 124 597.5 Q66 499 66 380 Q66 260 124.5 161.5 Q183 63 281.5 4.5 Q380 -54 500 -54 ZM294 127 L294 551 L208 551 L208 604 Q272 618 311 645 L371 645 L371 127 L294 127 ZM610 115 Q560 115 521.5 135 Q483 155 460 185 L500 235 Q521 212 547 196.5 Q573 181 609 181 Q644 181 667 205 Q690 229 690 269 Q690 313 661.5 339 Q633 365 554 365 L554 426 Q622 426 648.5 451 Q675 476 675 515 Q675 587 605 592 Q559 592 518 547 L475 595 Q503 624 536.5 640.5 Q570 657 610 657 Q673 657 713 621.5 Q753 586 753 520 Q753 475 731 445.5 Q709 416 672 400 L672 397 Q714 384 741.5 351 Q769 318 769 265 Q769 195 722.5 155 Q676 115 610 115 Z" /><glyph glyph-name="uni246D" unicode="&#x246d;" d="M207 551 L207 604 Q271 618 309 645 L369 645 L369 127 L292 127 L292 551 L207 551 ZM527 328 L653 328 L653 460 Q653 482 654 511.5 Q655 541 656 564 L652 564 Q643 544 635 529 Q627 513 618 493 L527 328 ZM725 645 L725 328 L783 328 L783 265 L725 265 L725 127 L653 127 L653 265 L453 265 L453 320 L635 645 L725 645 ZM500 -54 Q620 -54 718.5 4.5 Q817 63 875.5 161.5 Q934 260 934 380 Q934 500 875.5 598.5 Q817 697 718.5 755.5 Q620 814 500 814 Q379 814 280.5 755 Q182 696 124 597.5 Q66 499 66 380 Q66 260 124.5 161.5 Q183 63 281.5 4.5 Q380 -54 500 -54 ZM500 846 Q629 846 734.5 783 Q840 720 903 614.5 Q966 509 966 380 Q966 251 902.5 145 Q839 39 733.5 -23.5 Q628 -86 500 -86 Q372 -86 266 -23 Q160 40 97 146 Q34 252 34 380 Q34 509 97 614.5 Q160 720 266 783 Q372 846 500 846 Z" /><glyph glyph-name="uni246E" unicode="&#x246e;" d="M500 -86 Q372 -86 266 -23 Q160 40 97 146 Q34 252 34 380 Q34 509 97 614.5 Q160 720 266 783 Q372 846 500 846 Q629 846 734.5 783 Q840 720 903 614.5 Q966 509 966 380 Q966 251 902.5 145 Q839 39 733.5 -23.5 Q628 -86 500 -86 ZM500 -54 Q620 -54 718.5 4.5 Q817 63 875.5 161.5 Q934 260 934 380 Q934 500 875.5 598.5 Q817 697 718.5 755.5 Q620 814 500 814 Q379 814 280.5 755 Q182 696 124 597.5 Q66 499 66 380 Q66 260 124.5 161.5 Q183 63 281.5 4.5 Q380 -54 500 -54 ZM292 127 L292 551 L207 551 L207 604 Q271 618 309 645 L369 645 L369 127 L292 127 ZM614 115 Q560 115 523.5 135.5 Q487 156 463 184 L499 237 Q518 215 545 198 Q572 181 609 181 Q646 181 671 211 Q696 241 696 291 Q696 340 673 369 Q650 398 612 398 Q590 398 572.5 389 Q555 380 537 364 L500 390 L513 645 L752 645 L752 575 L578 575 L570 435 Q584 444 600 450 Q616 456 633 456 Q691 456 732.5 416 Q774 376 774 293 Q774 237 751.5 197 Q729 157 692.5 136 Q656 115 614 115 Z" /><glyph glyph-name="uni246F" unicode="&#x246f;" d="M207 551 L207 604 Q271 618 309 645 L369 645 L369 127 L292 127 L292 551 L207 551 ZM635 179 Q665 179 685.5 207.5 Q706 236 706 282 Q706 329 686.5 357 Q667 385 629 385 Q608 385 585.5 370 Q563 355 543 319 Q549 247 573 213 Q597 179 635 179 ZM769 600 L728 549 Q697 589 652 589 Q622 589 597.5 569.5 Q573 550 558 504.5 Q543 459 541 382 Q590 446 648 446 Q706 446 742 405.5 Q778 365 778 284 Q778 207 735.5 161 Q693 115 634 115 Q565 115 517 177 Q469 239 469 368 Q469 471 494.5 534.5 Q520 598 561 627.5 Q602 657 650 657 Q691 657 720.5 641 Q750 625 769 600 ZM500 -54 Q620 -54 718.5 4.5 Q817 63 875.5 161.5 Q934 260 934 380 Q934 500 875.5 598.5 Q817 697 718.5 755.5 Q620 814 500 814 Q379 814 280.5 755 Q182 696 124 597.5 Q66 499 66 380 Q66 260 124.5 161.5 Q183 63 281.5 4.5 Q380 -54 500 -54 ZM500 846 Q629 846 734.5 783 Q840 720 903 614.5 Q966 509 966 380 Q966 251 902.5 145 Q839 39 733.5 -23.5 Q628 -86 500 -86 Q372 -86 266 -23 Q160 40 97 146 Q34 252 34 380 Q34 509 97 614.5 Q160 720 266 783 Q372 846 500 846 Z" /><glyph glyph-name="uni2470" unicode="&#x2470;" d="M500 -86 Q372 -86 266 -23 Q160 40 97 146 Q34 252 34 380 Q34 509 97 614.5 Q160 720 266 783 Q372 846 500 846 Q629 846 734.5 783 Q840 720 903 614.5 Q966 509 966 380 Q966 251 902.5 145 Q839 39 733.5 -23.5 Q628 -86 500 -86 ZM500 -54 Q620 -54 718.5 4.5 Q817 63 875.5 161.5 Q934 260 934 380 Q934 500 875.5 598.5 Q817 697 718.5 755.5 Q620 814 500 814 Q379 814 280.5 755 Q182 696 124 597.5 Q66 499 66 380 Q66 260 124.5 161.5 Q183 63 281.5 4.5 Q380 -54 500 -54 ZM294 127 L294 551 L208 551 L208 604 Q272 618 311 645 L371 645 L371 127 L294 127 ZM563 127 Q568 266 595.5 369.5 Q623 473 689 575 L478 575 L478 645 L776 645 L776 595 Q698 484 671.5 379 Q645 274 640 127 L563 127 Z" /><glyph glyph-name="uni2471" unicode="&#x2471;" d="M500 -86 Q372 -86 266 -23 Q160 40 97 146 Q34 252 34 380 Q34 509 97 614.5 Q160 720 266 783 Q372 846 500 846 Q629 846 734.5 783 Q840 720 903 614.5 Q966 509 966 380 Q966 251 902.5 145 Q839 39 733.5 -23.5 Q628 -86 500 -86 ZM500 -54 Q620 -54 718.5 4.5 Q817 63 875.5 161.5 Q934 260 934 380 Q934 500 875.5 598.5 Q817 697 718.5 755.5 Q620 814 500 814 Q379 814 280.5 755 Q182 696 124 597.5 Q66 499 66 380 Q66 260 124.5 161.5 Q183 63 281.5 4.5 Q380 -54 500 -54 ZM292 127 L292 551 L207 551 L207 604 Q271 618 310 645 L370 645 L370 127 L292 127 ZM636 115 Q568 115 523.5 155 Q479 195 479 256 Q479 308 505 342 Q531 376 565 395 L565 399 Q537 419 518.5 449.5 Q500 480 500 520 Q500 584 539.5 620.5 Q579 657 637 657 Q700 657 737 619 Q774 581 774 519 Q774 477 755 444.5 Q736 412 712 394 L712 391 Q745 371 769 340.5 Q793 310 793 257 Q793 197 750 156 Q707 115 636 115 ZM666 413 Q709 460 709 512 Q709 550 689.5 574 Q670 598 635 598 Q606 598 587 578 Q568 558 568 520 Q568 477 596 453 Q624 429 666 413 ZM639 175 Q676 175 698.5 197.5 Q721 220 721 259 Q721 306 689.5 330 Q658 354 608 374 Q584 355 566.5 328.5 Q549 302 549 267 Q549 227 575 201 Q601 175 639 175 Z" /><glyph glyph-name="uni2472" unicode="&#x2472;" d="M207 551 L207 604 Q271 618 309 645 L369 645 L369 127 L292 127 L292 551 L207 551 ZM625 386 Q645 386 667.5 401 Q690 416 710 452 Q704 523 680.5 558.5 Q657 594 619 594 Q591 594 570 565 Q549 536 549 489 Q549 442 568.5 414 Q588 386 625 386 ZM485 171 L527 221 Q557 183 602 183 Q632 183 656 202.5 Q680 222 695 267.5 Q710 313 712 390 Q666 325 607 325 Q549 325 513 365.5 Q477 406 477 488 Q477 565 519 611 Q561 657 619 657 Q688 657 736 595 Q784 533 784 404 Q784 301 759 237 Q734 173 693.5 144 Q653 115 606 115 Q564 115 534.5 131 Q505 147 485 171 ZM500 -54 Q620 -54 718.5 4.5 Q817 63 875.5 161.5 Q934 260 934 380 Q934 500 875.5 598.5 Q817 697 718.5 755.5 Q620 814 500 814 Q379 814 280.5 755 Q182 696 124 597.5 Q66 499 66 380 Q66 260 124.5 161.5 Q183 63 281.5 4.5 Q380 -54 500 -54 ZM500 846 Q629 846 734.5 783 Q840 720 903 614.5 Q966 509 966 380 Q966 251 902.5 145 Q839 39 733.5 -23.5 Q628 -86 500 -86 Q372 -86 266 -23 Q160 40 97 146 Q34 252 34 380 Q34 509 97 614.5 Q160 720 266 783 Q372 846 500 846 Z" /><glyph glyph-name="uni2473" unicode="&#x2473;" d="M500 -86 Q372 -86 266 -23 Q160 40 97 146 Q34 252 34 380 Q34 509 97 614.5 Q160 720 266 783 Q372 846 500 846 Q629 846 734.5 783 Q840 720 903 614.5 Q966 509 966 380 Q966 251 902.5 145 Q839 39 733.5 -23.5 Q628 -86 500 -86 ZM500 -54 Q620 -54 718.5 4.5 Q817 63 875.5 161.5 Q934 260 934 380 Q934 500 875.5 598.5 Q817 697 718.5 755.5 Q620 814 500 814 Q379 814 280.5 755 Q182 696 124 597.5 Q66 499 66 380 Q66 260 124.5 161.5 Q183 63 281.5 4.5 Q380 -54 500 -54 ZM205 127 L205 175 Q300 284 353.5 359.5 Q407 435 407 496 Q407 540 388 565.5 Q369 591 331 591 Q305 591 283 575.5 Q261 560 243 537 L199 580 Q259 657 341 657 Q406 657 443.5 614.5 Q481 572 481 502 Q481 454 458 405 Q435 356 397 303.5 Q359 251 311 193 Q351 197 391 197 L499 197 L499 127 L205 127 ZM674 115 Q601 115 557.5 188 Q514 261 514 388 Q514 515 557.5 586 Q601 657 674 657 Q746 657 789.5 586 Q833 515 833 388 Q833 261 789.5 188 Q746 115 674 115 ZM674 182 Q709 182 732 232 Q755 282 755 388 Q755 494 732 542.5 Q709 591 674 591 Q637 591 614.5 542.5 Q592 494 592 388 Q592 282 614.5 232 Q637 182 674 182 Z" /><glyph glyph-name="uni3001" unicode="&#x3001;" d="M127 84 L186 137 Q291 52 374 -43 L308 -98 Q227 0 127 84 Z" /><glyph glyph-name="uni3002" unicode="&#x3002;" d="M178 31 Q178 1 199 -20 Q220 -40 250 -40 Q280 -40 301 -20 Q322 0 322 31 Q322 61 301 82 Q280 103 250 103 Q220 103 199 82 Q178 61 178 31 ZM127 31 Q127 83 163 119 Q199 156 250 156 Q302 156 338 119 Q374 83 374 31 Q374 -21 338 -56 Q302 -91 250 -91 Q199 -91 163 -56 Q127 -20 127 31 Z" /><glyph glyph-name="uni3008" unicode="&#x3008;" d="M665 780 L413 350 L665 -80 L585 -80 L332 350 L585 780 L665 780 Z" /><glyph glyph-name="uni3009" unicode="&#x3009;" d="M337 350 L85 780 L166 780 L419 350 L166 -80 L85 -80 L337 350 Z" /><glyph glyph-name="uni300A" unicode="&#x300a;" d="M174 350 L427 780 L509 780 L257 350 L509 -80 L427 -80 L174 350 ZM336 350 L589 780 L670 780 L418 350 L670 -80 L589 -80 L336 350 Z" /><glyph glyph-name="uni300B" unicode="&#x300b;" d="M323 780 L576 350 L323 -80 L241 -80 L493 350 L241 780 L323 780 ZM80 780 L161 780 L414 350 L161 -80 L80 -80 L332 350 L80 780 Z" /><glyph glyph-name="uni300C" unicode="&#x300c;" d="M413 810 L645 810 L645 733 L489 733 L489 -110 L413 -110 L413 810 Z" /><glyph glyph-name="uni300D" unicode="&#x300d;" d="M338 -110 L105 -110 L105 -32 L261 -32 L261 810 L338 810 L338 -110 Z" /><glyph glyph-name="uni300E" unicode="&#x300e;" d="M344 810 L650 810 L650 672 L479 672 L479 -110 L344 -110 L344 810 ZM605 766 L388 766 L388 -65 L435 -65 L435 717 L605 717 L605 766 Z" /><glyph glyph-name="uni300F" unicode="&#x300f;" d="M406 -110 L100 -110 L100 28 L271 28 L271 810 L406 810 L406 -110 ZM144 -65 L361 -65 L361 766 L314 766 L314 -17 L144 -17 L144 -65 Z" /><glyph glyph-name="uni3010" unicode="&#x3010;" d="M407 810 L645 810 Q521 638 516 350 Q516 195 548 85 Q580 -25 645 -110 L407 -110 L407 810 Z" /><glyph glyph-name="uni3011" unicode="&#x3011;" d="M105 810 L342 810 L342 -110 L105 -110 Q170 -25 202 85 Q234 195 234 350 Q230 638 105 810 Z" /><glyph glyph-name="uni3014" unicode="&#x3014;" d="M394 710 L606 810 L638 735 L472 656 L472 44 L638 -34 L606 -110 L394 -10 L394 710 Z" /><glyph glyph-name="uni3015" unicode="&#x3015;" d="M356 710 L356 -10 L144 -110 L112 -34 L278 44 L278 656 L112 735 L144 810 L356 710 Z" /><glyph glyph-name="uni3016" unicode="&#x3016;" d="M508 350 Q507 221 547 95 Q581 -13 645 -110 L378 -110 L378 810 L645 810 Q578 711 543 585 Q508 460 508 350 ZM464 350 Q464 581 568 766 L423 766 L423 -65 L568 -65 Q463 117 464 350 Z" /><glyph glyph-name="uni3017" unicode="&#x3017;" d="M242 350 Q242 460 207 585 Q172 711 105 810 L372 810 L372 -110 L105 -110 Q174 -6 208 112 Q243 230 242 350 ZM286 350 Q286 232 260 129 Q235 25 182 -65 L328 -65 L328 766 L182 766 Q286 581 286 350 Z" /><glyph glyph-name="uni301D" unicode="&#x301d;" d="M298 718 L386 718 L492 557 L434 557 L298 718 ZM471 718 L558 718 L665 557 L607 557 L471 718 Z" /><glyph glyph-name="uni301E" unicode="&#x301e;" d="M365 718 L453 718 L316 557 L259 557 L365 718 ZM193 718 L280 718 L144 557 L86 557 L193 718 Z" /><glyph glyph-name="uniFE30" unicode="&#xfe30;" d="M451 122 L451 219 L549 219 L549 122 L451 122 ZM549 578 L549 481 L451 481 L451 578 L549 578 Z" /><glyph glyph-name="uniFE34" unicode="&#xfe34;" d="M155 850 L253 850 Q297 827 321 795 Q345 764 345 738 Q340 699 300 669 Q279 651 262 634 Q245 617 244 601 Q249 581 288 552 Q309 536 325 518 Q342 500 343 481 Q339 447 301 416 Q280 397 263 380 Q246 363 245 349 Q249 323 283 302 Q305 287 323 271 Q342 254 343 234 Q338 192 297 158 Q278 140 262 123 Q246 107 245 93 Q249 70 284 45 Q306 29 325 10 Q343 -8 344 -30 Q344 -64 312 -100 Q280 -136 249 -150 L155 -150 Q199 -121 226 -89 Q252 -57 253 -33 Q248 -7 210 22 Q189 40 172 58 Q156 75 155 93 Q159 126 195 156 Q217 175 234 194 Q252 214 253 235 Q249 252 216 274 Q194 289 175 307 Q157 325 156 349 Q159 378 190 406 Q212 425 231 444 Q251 463 252 482 Q248 507 213 530 Q192 546 174 563 Q156 580 155 601 Q159 636 196 665 Q217 683 235 701 Q253 719 254 738 Q255 767 227 796 Q202 823 155 850 Z" /><glyph glyph-name="uniFE35" unicode="&#xfe35;" d="M951 35 L951 -45 Q823 27 724 59 Q625 91 501 92 Q379 92 279 59 Q178 26 50 -45 L50 35 Q276 172 501 172 Q623 172 732 137 Q841 103 951 35 Z" /><glyph glyph-name="uniFE36" unicode="&#xfe36;" d="M951 745 L951 665 Q841 597 732 562 Q623 528 501 528 Q276 528 50 665 L50 745 Q178 674 279 641 Q379 608 501 608 Q625 609 724 641 Q823 673 951 745 Z" /><glyph glyph-name="uniFE37" unicode="&#xfe37;" d="M65 -53 Q74 -5 87 35.5 Q100 76 122.5 104.5 Q145 133 180.5 149 Q216 165 270 165 L351 165 Q412 165 443 191 Q472 218 472 284 L472 308 L528 308 L528 284 Q528 218 557 191.5 Q586 165 651 165 L729 165 Q785 165 824 146 Q851 135 870 112 Q889 89 901.5 61 Q914 33 922 3 Q930 -27 935 -53 L883 -65 Q858 44 823 68 Q803 82 782 84.5 Q761 87 738 87 L639 87 Q582 87 552 107.5 Q522 128 500 180 Q479 128 448 107.5 Q417 87 360 87 L265 87 Q220 87 196 77 Q178 70 165 53 Q152 36 143 15.5 Q134 -5 128 -26.5 Q122 -48 118 -65 L65 -53 Z" /><glyph glyph-name="uniFE38" unicode="&#xfe38;" d="M65 754 L118 765 Q144 656 178 633 Q197 619 221 616 Q247 613 278 613 L360 613 Q389 613 410.5 608.5 Q432 604 448 593.5 Q464 583 476.5 565.5 Q489 548 500 521 Q511 548 523 565.5 Q535 583 551.5 593.5 Q568 604 589.5 608.5 Q611 613 639 613 L733 613 Q774 613 799 622.5 Q824 632 839.5 651 Q855 670 864.5 698.5 Q874 727 883 765 L935 754 Q926 705 913 665 Q900 625 877.5 596.5 Q855 568 819.5 552 Q784 536 729 536 L651 536 Q586 536 557 509.5 Q528 483 528 417 L528 393 L472 393 L472 417 Q472 481 443.5 508.5 Q415 536 351 536 L270 536 Q244 536 221 539.5 Q198 543 175 554 Q148 565 129.5 588 Q111 611 98 639.5 Q85 668 77.5 698.5 Q70 729 65 754 Z" /><glyph glyph-name="uniFE39" unicode="&#xfe39;" d="M859 196 L960 -17 L884 -45 L805 118 L193 118 L115 -44 L40 -16 L138 196 L859 196 Z" /><glyph glyph-name="uniFE3A" unicode="&#xfe3a;" d="M859 504 L138 504 L40 716 L115 744 L193 582 L805 582 L884 745 L960 717 L859 504 Z" /><glyph glyph-name="uniFE3B" unicode="&#xfe3b;" d="M960 192 L960 -45 Q789 79 500 84 Q345 84 235 52 Q125 20 40 -45 L40 192 L960 192 Z" /><glyph glyph-name="uniFE3C" unicode="&#xfe3c;" d="M960 507 L40 507 L40 745 Q125 680 235 648 Q345 616 500 616 Q789 620 960 745 L960 507 Z" /><glyph glyph-name="uniFE3D" unicode="&#xfe3d;" d="M70 135 L500 388 L930 135 L930 53 L500 305 L70 53 L70 135 ZM70 -108 L70 -28 L500 225 L930 -28 L930 -108 L500 144 L70 -108 Z" /><glyph glyph-name="uniFE3E" unicode="&#xfe3e;" d="M70 527 L70 608 L500 356 L930 608 L930 527 L500 274 L70 527 ZM70 689 L70 770 L500 518 L930 770 L930 689 L500 436 L70 689 Z" /><glyph glyph-name="uniFE3F" unicode="&#xfe3f;" d="M500 187 L70 -65 L70 15 L500 268 L930 15 L930 -65 L500 187 Z" /><glyph glyph-name="uniFE40" unicode="&#xfe40;" d="M70 766 L500 514 L930 766 L930 686 L500 433 L70 686 L70 766 Z" /><glyph glyph-name="uniFE41" unicode="&#xfe41;" d="M960 189 L960 -45 L881 -45 L881 111 L40 111 L40 189 L960 189 Z" /><glyph glyph-name="uniFE42" unicode="&#xfe42;" d="M40 474 L40 707 L118 707 L118 551 L960 551 L960 474 L40 474 Z" /><glyph glyph-name="uniFE43" unicode="&#xfe43;" d="M960 265 L960 -45 L823 -45 L823 125 L40 125 L40 265 L960 265 ZM915 -1 L915 217 L84 217 L84 169 L868 169 L868 -1 L915 -1 Z" /><glyph glyph-name="uniFE44" unicode="&#xfe44;" d="M40 435 L40 745 L177 745 L177 575 L960 575 L960 435 L40 435 ZM84 701 L84 483 L915 483 L915 531 L132 531 L132 701 L84 701 Z" /><glyph glyph-name="uniFE49" unicode="&#xfe49;" d="M774 795 Q774 800 778 800 L927 800 Q931 800 931 795 L931 746 Q931 741 927 741 L778 741 Q774 741 774 746 L774 795 ZM422 746 L422 795 Q422 800 426 800 L575 800 Q579 800 579 795 L579 746 Q579 741 575 741 L426 741 Q422 741 422 746 ZM70 746 L70 795 Q70 800 74 800 L223 800 Q227 800 227 795 L227 746 Q227 741 223 741 L74 741 Q70 741 70 746 Z" /><glyph glyph-name="uniFE4A" unicode="&#xfe4a;" d="M664 748 L664 795 Q664 800 668 800 L927 800 Q931 800 931 795 L931 748 Q931 743 927 743 L668 743 Q664 743 664 748 ZM70 748 L70 795 Q70 800 74 800 L333 800 Q337 800 337 795 L337 748 Q337 743 333 743 L74 743 Q70 743 70 748 ZM466 743 Q456 754 456 769 Q456 787 470 799 Q483 812 500 812 Q517 812 530 800 Q543 787 543 769 Q543 756 535 743 Q534 741 533 740.5 Q532 740 531 738 Q518 726 500 726 Q492 726 481.5 730.5 Q471 735 466 743 Z" /><glyph glyph-name="uniFE4B" unicode="&#xfe4b;" d="M0 730 L0 790 Q60 749 119 780 Q187 808 249 780 Q296 751 353 780 Q421 811 490 779 Q550 746 612 778 Q685 811 748 778 Q801 747 857 780 Q889 799 928 795 Q967 791 1000 762 L1000 701 Q927 764 865 724 Q798 688 739 722 Q685 754 621 722 Q549 690 479 724 Q427 755 361 724 Q294 691 240 722 Q187 753 130 722 Q103 705 66 706 Q29 708 0 730 Z" /><glyph glyph-name="uniFE4C" unicode="&#xfe4c;" d="M0 833 Q35 810 69 810 Q94 810 119 823 Q151 837 186 837 Q202 837 218 834 Q234 831 249 823 Q274 809 298 809 Q323 809 353 823 Q386 838 419 838 Q455 838 490 822 Q521 805 551 805 Q580 805 612 821 Q651 838 683 838 Q716 838 748 821 Q774 806 800 806 Q828 806 857 823 Q882 839 914 839 Q917 839 920.5 839 Q924 839 928 838 Q967 834 1000 805 L1000 744 Q955 783 915 783 Q901 783 889 779 Q877 775 865 767 Q829 748 798 748 Q768 748 739 765 Q713 781 683 781 Q653 781 621 765 Q584 749 551 749 Q515 749 479 767 Q454 783 423 783 Q393 783 361 767 Q325 750 295 750 Q266 750 240 765 Q215 781 186 781 Q158 781 130 765 Q114 756 99 752.5 Q84 749 66 749 Q29 751 0 773 L0 833 ZM0 730 Q35 707 69 707 Q94 707 119 720 Q151 734 186 734 Q202 734 218 731 Q234 728 249 720 Q274 706 298 706 Q323 706 353 720 Q386 735 419 735 Q455 735 490 719 Q521 702 551 702 Q580 702 612 718 Q651 735 683 735 Q716 735 748 718 Q774 703 800 703 Q828 703 857 720 Q882 736 914 736 Q917 736 920.5 736 Q924 736 928 735 Q967 731 1000 702 L1000 641 Q955 680 915 680 Q901 680 889 676 Q877 672 865 664 Q829 645 798 645 Q768 645 739 662 Q713 678 683 678 Q653 678 621 662 Q584 646 551 646 Q515 646 479 664 Q454 680 423 680 Q393 680 361 664 Q325 647 295 647 Q266 647 240 662 Q215 678 186 678 Q158 678 130 662 Q114 653 99 649.5 Q84 646 66 646 Q29 648 0 670 L0 730 Z" /><glyph glyph-name="uniFE4D" unicode="&#xfe4d;" d="M774 -45 Q774 -40 778 -40 L927 -40 Q931 -40 931 -45 L931 -95 Q931 -100 927 -100 L778 -100 Q774 -100 774 -95 L774 -45 ZM422 -95 L422 -45 Q422 -40 426 -40 L575 -40 Q579 -40 579 -45 L579 -95 Q579 -100 575 -100 L426 -100 Q422 -100 422 -95 ZM70 -95 L70 -45 Q70 -40 74 -40 L223 -40 Q227 -40 227 -45 L227 -95 Q227 -100 223 -100 L74 -100 Q70 -100 70 -95 Z" /><glyph glyph-name="uniFE4E" unicode="&#xfe4e;" d="M664 -95 L664 -45 Q664 -40 668 -40 L927 -40 Q931 -40 931 -45 L931 -95 Q931 -100 927 -100 L668 -100 Q664 -100 664 -95 ZM70 -95 L70 -45 Q70 -40 74 -40 L333 -40 Q337 -40 337 -45 L337 -95 Q337 -100 333 -100 L74 -100 Q70 -100 70 -95 ZM467 -100 Q456 -87 456 -73 Q456 -56 469.5 -42.5 Q483 -29 500 -29 Q517 -29 529 -40 L531 -42 Q543 -56 543 -73 Q543 -89 533 -100 Q533 -103 529 -106 Q525 -109 519.5 -111.5 Q514 -114 508.5 -115 Q503 -116 500 -116 Q482 -116 470 -103 L467 -100 Z" /><glyph glyph-name="uniFE4F" unicode="&#xfe4f;" d="M0 -76 L0 -15 Q60 -56 119 -25 Q187 3 249 -25 Q296 -54 353 -25 Q421 6 490 -26 Q550 -59 612 -27 Q685 6 748 -27 Q801 -58 857 -25 Q889 -6 928 -10 Q967 -14 1000 -43 L1000 -105 Q927 -42 865 -82 Q798 -118 739 -84 Q685 -52 621 -84 Q549 -116 479 -82 Q427 -51 361 -82 Q294 -115 240 -84 Q187 -53 130 -84 Q103 -101 66 -100 Q29 -98 0 -76 Z" /><glyph glyph-name="uniFE54" unicode="&#xfe54;" d="M456 -65 Q479 -54 487.5 -40 Q496 -26 496 0 L467 0 L467 67 L533 67 L533 9 Q533 -31 519 -54 Q502 -76 466 -86 L456 -65 ZM533 395 L533 329 L467 329 L467 395 L533 395 Z" /><glyph glyph-name="uniFE55" unicode="&#xfe55;" d="M533 67 L533 0 L467 0 L467 67 L533 67 ZM467 329 L467 396 L533 396 L533 329 L467 329 Z" /><glyph glyph-name="uniFE56" unicode="&#xfe56;" d="M464 0 L464 67 L531 67 L531 0 L464 0 ZM348 447 Q369 491 410 519 Q451 547 504 547 Q575 547 614 510 Q653 473 653 411 Q652 358 616 314 Q580 272 527 254 L525 140 L469 140 L468 286 Q532 306 564 336 Q596 366 596 409 Q596 449 571 472 Q547 494 507 494 Q473 494 442 474 Q410 454 392 421 L348 447 Z" /><glyph glyph-name="uniFE59" unicode="&#xfe59;" d="M574 613 L632 613 Q578 518 554 443 Q530 368 529 275 Q529 184 554 109 Q578 34 632 -62 L574 -62 Q471 106 471 275 Q474 461 574 613 Z" /><glyph glyph-name="uniFE5A" unicode="&#xfe5a;" d="M368 613 L426 613 Q526 461 529 275 Q529 106 426 -62 L368 -62 Q422 34 447 109 Q471 184 471 275 Q470 368 446 443 Q422 518 368 613 Z" /><glyph glyph-name="uniFE5B" unicode="&#xfe5b;" d="M381 299 Q432 299 451 320 Q470 341 470 392 L470 450 Q470 490 482 516.5 Q494 543 515.5 560.5 Q537 578 567.5 587.5 Q598 597 634 604 L643 564 Q559 544 543 519 Q533 506 531 487 Q530 478 529.5 467.5 Q529 457 529 444 L529 383 Q529 343 517.5 321 Q506 299 470 282 Q468 281 465 280 Q462 279 460 278 Q462 277 465 276 Q468 275 470 274 Q505 260 517 235 Q529 210 529 174 L529 113 Q529 87 532 67 Q535 38 560 22 Q585 5 645 -10 L634 -48 Q612 -44 587 -37 Q562 -30 539.5 -19 Q517 -8 500 9.5 Q483 27 477 52 Q470 74 470 106 L470 167 Q470 215 450 236 Q430 257 381 257 L364 257 L364 299 L381 299 Z" /><glyph glyph-name="uniFE5C" unicode="&#xfe5c;" d="M355 -10 Q437 9 456 36 Q467 50 468 69 Q471 87 471 113 L471 174 Q471 210 483 235 Q495 260 530 274 Q532 275 535 276 Q538 277 540 278 Q538 279 535 280 Q532 281 530 282 Q495 299 483 322 Q471 345 471 383 L471 444 Q473 488 461 510 Q456 523 444 531 Q422 549 357 564 L366 604 Q388 600 413 593 Q438 586 460.5 575 Q483 564 500 546.5 Q517 529 523 504 Q530 482 530 450 L530 392 Q530 341 549 320 Q568 299 619 299 L636 299 L636 257 L619 257 Q570 257 550 236 Q530 215 530 167 L530 106 Q530 66 518 39.5 Q506 13 484.5 -4.5 Q463 -22 432.5 -31.5 Q402 -41 366 -48 L355 -10 Z" /><glyph glyph-name="uniFE5D" unicode="&#xfe5d;" d="M671 14 L656 -38 L475 19 L475 504 L656 562 L670 509 L525 467 L525 57 L671 14 Z" /><glyph glyph-name="uniFE5E" unicode="&#xfe5e;" d="M344 -38 L328 14 L475 57 L475 467 L329 509 L344 562 L525 504 L525 19 L344 -38 Z" /><glyph glyph-name="uniFE5F" unicode="&#xfe5f;" d="M596 161 L560 0 L504 0 L540 161 L404 161 L367 0 L311 0 L348 161 L281 161 L281 209 L359 209 L391 350 L304 350 L304 398 L402 398 L434 538 L490 538 L458 398 L594 398 L625 538 L681 538 L650 398 L718 398 L718 350 L639 350 L607 209 L695 209 L695 161 L596 161 ZM551 209 L583 350 L447 350 L415 209 L551 209 Z" /><glyph glyph-name="uniFE60" unicode="&#xfe60;" d="M615 80 Q577 39 530 15 Q481 -8 430 -8 Q356 -8 310 34 Q263 75 263 143 Q263 195 296 233 Q329 271 393 296 Q334 357 336 419 Q336 471 377 507 Q418 544 480 544 Q537 544 574 510 Q610 476 610 424 Q610 371 579 335 Q548 299 485 277 L615 152 Q659 211 675 275 L725 258 Q701 177 649 118 L736 35 L700 -2 L615 80 ZM450 313 Q559 349 557 422 Q557 456 536 476 Q513 496 478 496 Q441 496 418 474 Q394 451 394 419 Q394 367 450 313 ZM433 43 Q503 43 580 115 L437 254 Q379 231 349 205 Q320 180 320 145 Q320 100 352 71 Q384 43 433 43 Z" /><glyph glyph-name="uniFE61" unicode="&#xfe61;" d="M487 342 L409 287 L386 325 L474 365 L386 405 L409 443 L487 388 L478 483 L522 483 L513 388 L591 443 L614 405 L526 365 L614 325 L591 287 L513 342 L522 247 L478 247 L487 342 Z" /><glyph glyph-name="uniFE62" unicode="&#xfe62;" d="M316 299 L471 299 L471 452 L529 452 L529 299 L684 299 L684 242 L529 242 L529 89 L471 89 L471 242 L316 242 L316 299 Z" /><glyph glyph-name="uniFE63" unicode="&#xfe63;" d="M648 301 L648 241 L352 241 L352 301 L648 301 Z" /><glyph glyph-name="uniFE64" unicode="&#xfe64;" d="M676 470 L676 407 L399 270 L676 132 L676 67 L325 250 L325 288 L676 470 Z" /><glyph glyph-name="uniFE66" unicode="&#xfe66;" d="M347 387 L652 387 L652 327 L347 327 L347 387 ZM347 153 L347 213 L652 213 L652 153 L347 153 Z" /><glyph glyph-name="uniFE68" unicode="&#xfe68;" d="M360 802 L740 -100 L640 -100 L260 802 L360 802 Z" /><glyph glyph-name="uniFE69" unicode="&#xfe69;" d="M341 124 Q374 91 407 73 Q424 65 442.5 60 Q461 55 482 53 L482 249 Q452 257 423.5 267.5 Q395 278 373 294.5 Q351 311 337.5 335.5 Q324 360 324 396 Q324 429 337.5 453.5 Q351 478 373.5 495 Q396 512 424 521 Q452 530 481 532 L481 575 L533 575 L533 530 Q616 522 676 471 L649 429 Q598 470 533 479 L531 479 L531 295 L533 295 Q563 288 592 277 Q621 266 643.5 248.5 Q666 231 680 206 Q694 181 694 145 Q694 110 681 84 Q668 58 645.5 40 Q623 22 594 12.5 Q565 3 533 1 L533 -59 L481 -59 L481 2 Q428 7 385.5 27 Q343 47 306 84 L341 124 ZM531 52 Q552 52 571 57 Q590 62 605 73 Q620 84 629 100.5 Q638 117 638 140 Q638 164 629.5 180.5 Q621 197 606.5 208.5 Q592 220 573 227.5 Q554 235 533 240 L531 240 L531 52 ZM381 398 Q381 375 389.5 359.5 Q398 344 412.5 333.5 Q427 323 445 316 Q463 309 482 304 L482 481 Q458 480 440.5 473.5 Q423 467 409 455 Q381 433 381 398 Z" /><glyph glyph-name="uniFE6A" unicode="&#xfe6a;" d="M658 538 Q690 538 721 538 Q530 269 338 0 Q306 0 274 0 Q466 269 658 538 ZM348 302 Q296 302 261 337 Q226 372 226 424 Q226 475 261 510 Q296 545 348 545 Q401 545 436 510 Q471 475 471 424 Q471 372 436 337 Q401 302 348 302 ZM348 346 Q380 346 402 368 Q424 391 424 423 Q424 456 402 478 Q380 501 348 501 Q316 501 295 478 Q273 456 273 424 Q273 391 295 368 Q316 346 348 346 ZM651 -8 Q599 -8 564 27 Q529 63 529 114 Q529 165 564 200 Q599 236 651 236 Q703 236 739 200 Q774 165 774 114 Q774 63 739 27 Q703 -8 651 -8 ZM651 36 Q683 36 705 59 Q727 81 727 114 Q727 147 705 168 Q684 191 651 191 Q620 191 598 168 Q576 147 576 114 Q576 81 598 59 Q620 36 651 36 Z" /><glyph glyph-name="uniFE6B" unicode="&#xfe6b;" d="M227 269 Q227 383 307 464 Q387 546 502 546 Q616 546 695 473 Q773 400 773 298 Q773 224 740 183 Q706 143 661 143 Q626 143 605 159 Q583 177 576 205 Q540 145 468 143 Q421 143 389 174 Q357 206 357 256 Q357 320 401 366 Q445 411 500 411 Q538 410 560 394 Q582 378 591 355 L600 402 L638 396 L615 267 Q613 246 611 226 Q611 179 659 179 Q693 179 711 208 Q728 237 728 295 Q728 379 663 440 Q597 502 502 502 Q403 501 338 433 Q273 366 273 269 Q273 170 339 104 Q405 38 506 38 Q586 39 646 78 L669 40 Q632 17 593 5 Q553 -7 507 -7 Q387 -7 307 73 Q227 153 227 269 ZM406 261 Q406 228 427 208 Q447 189 477 189 Q516 189 544 219 Q570 250 570 292 Q570 323 550 345 Q530 367 500 367 Q462 367 434 337 Q406 308 406 261 Z" /><glyph glyph-name="uniFF01" unicode="&#xff01;" d="M202 718 L298 718 L292 187 L208 187 L202 718 ZM198 91 L303 91 L303 0 L198 0 L198 91 Z" /><glyph glyph-name="uniFF04" unicode="&#xff04;" d="M287 171 Q326 132 366.5 110.5 Q407 89 463 84 L465 84 L465 317 L463 317 Q421 325 383 341 Q345 357 316 382 Q287 407 269.5 442.5 Q252 478 252 524 Q252 568 270.5 600.5 Q289 633 319 655 Q349 677 386.5 688.5 Q424 700 463 702 L463 758 L547 758 L547 700 Q599 695 647.5 675 Q696 655 736 621 L690 553 Q627 607 547 612 L545 612 L545 396 L547 396 Q588 386 626.5 370.5 Q665 355 694.5 331 Q724 307 741.5 272.5 Q759 238 759 190 Q759 145 741.5 110 Q724 75 695 51.5 Q666 28 627.5 15 Q589 2 547 0 L547 -78 L463 -78 L463 2 Q333 14 240 110 L287 171 ZM545 82 Q569 82 591.5 88 Q614 94 632 106.5 Q650 119 660.5 138.5 Q671 158 671 185 Q672 230 643 259 Q629 272 605.5 283.5 Q582 295 547 304 Q546 305 545 305 L545 82 ZM347 522 Q347 498 357.5 479 Q368 460 384.5 446 Q401 432 421.5 423 Q442 414 463 410 L465 410 L465 614 Q444 614 423 608.5 Q402 603 385 591.5 Q368 580 357.5 562.5 Q347 545 347 522 Z" /><glyph glyph-name="uniFF07" unicode="&#xff07;" d="M470 718 L559 718 L486 446 L440 446 L470 718 Z" /><glyph glyph-name="uniFF08" unicode="&#xff08;" d="M560 801 L645 801 Q573 674 541 574 Q509 474 508 350 Q509 224 543 120 Q579 17 645 -100 L560 -100 Q423 126 423 350 Q423 473 458 582 Q492 691 560 801 Z" /><glyph glyph-name="uniFF09" unicode="&#xff09;" d="M105 801 L190 801 Q258 691 293 582 Q327 473 327 350 Q327 126 190 -100 L105 -100 Q171 17 207 120 Q242 224 242 350 Q241 474 209 574 Q177 674 105 801 Z" /><glyph glyph-name="uniFF0A" unicode="&#xff0a;" d="M483 530 L379 456 L348 507 L465 560 L348 614 L379 665 L483 591 L471 718 L529 718 L517 591 L621 665 L652 614 L535 560 L652 507 L621 456 L517 530 L529 403 L471 403 L483 530 Z" /><glyph glyph-name="uniFF0B" unicode="&#xff0b;" d="M240 383 L453 383 L453 587 L547 587 L547 383 L760 383 L760 292 L547 292 L547 88 L453 88 L453 292 L240 292 L240 383 Z" /><glyph glyph-name="uniFF0C" unicode="&#xff0c;" d="M182 -116 Q215 -101 232 -69 Q247 -36 245 0 L194 0 L194 106 L306 106 L306 13 Q306 -45 277 -88 Q247 -130 196 -146 L182 -116 Z" /><glyph glyph-name="uniFF0D" unicode="&#xff0d;" d="M273 384 L727 384 L727 293 L273 293 L273 384 Z" /><glyph glyph-name="uniFF0F" unicode="&#xff0f;" d="M625 809 L725 809 L374 -108 L274 -108 L625 809 Z" /><glyph glyph-name="uniFF1A" unicode="&#xff1a;" d="M194 528 L306 528 L306 422 L194 422 L194 528 ZM194 106 L306 106 L306 0 L194 0 L194 106 Z" /><glyph glyph-name="uniFF1B" unicode="&#xff1b;" d="M183 -116 Q215 -101 232 -69 Q247 -37 245 0 L194 0 L194 106 L306 106 L306 13 Q306 -43 278.5 -85.5 Q251 -128 197 -146 L183 -116 ZM194 528 L306 528 L306 422 L194 422 L194 528 Z" /><glyph glyph-name="uniFF1C" unicode="&#xff1c;" d="M734 622 L734 514 L380 338 L734 162 L734 54 L265 297 L265 379 L734 622 Z" /><glyph glyph-name="uniFF1D" unicode="&#xff1d;" d="M278 507 L723 507 L723 416 L278 416 L278 507 ZM277 260 L722 260 L722 169 L277 169 L277 260 Z" /><glyph glyph-name="uniFF1E" unicode="&#xff1e;" d="M619 338 L265 514 L265 622 L734 379 L734 297 L265 54 L265 162 L619 338 Z" /><glyph glyph-name="uniFF1F" unicode="&#xff1f;" d="M35 553 Q54 635 115 681 Q175 728 259 728 Q355 728 410 677 Q465 625 465 545 Q464 470 415 416 Q366 363 292 342 L290 194 L209 194 L207 387 Q287 404 330 443 Q373 483 373 545 Q373 588 341 615 Q309 643 260 643 Q215 643 179 616 Q143 589 128 542 L35 553 ZM194 98 L306 98 L306 0 L194 0 L194 98 Z" /><glyph glyph-name="uniFF3F" unicode="&#xff3f;" d="M268 -108 L732 -108 L732 -200 L268 -200 L268 -108 Z" /><glyph glyph-name="uniFF5C" unicode="&#xff5c;" d="M453 809 L547 809 L547 -108 L453 -108 L453 809 Z" /><glyph glyph-name="uniFFE5" unicode="&#xffe5;" d="M229 718 L335 718 L501 446 L666 718 L772 718 L568 399 L720 399 L720 312 L548 312 L548 222 L719 222 L719 136 L548 136 L548 0 L453 0 L453 136 L280 136 L280 222 L453 222 L453 312 L281 312 L281 399 L429 399 L229 718 Z" /></font>
</defs>
</svg>
